<svg xmlns="http://www.w3.org/2000/svg" width="197" height="23" fill="none"><rect width="197" height="23" fill="#032538" rx="5"/><path fill="#FF6E6E" d="M11.552 14.92v-1.344l6.208-2.08v-.192l-6.208-2.08V7.88l6.688 2.304v2.432l-6.688 2.304ZM37.994 17H36.65v-3.744c0-.277-.064-.49-.192-.64-.128-.15-.352-.224-.672-.224h-3.488V17h-1.344V5.8h4c.576 0 1.077.085 1.504.256.426.16.778.379 1.056.656.288.277.501.603.64.976.15.363.224.747.224 1.152v.48c0 .416-.118.832-.352 1.248-.224.416-.576.736-1.056.96v.192c.32.053.57.181.752.384.181.203.272.49.272.864V17Zm-5.696-5.856h2.496c.757 0 1.317-.16 1.68-.48.373-.33.56-.81.56-1.44v-.288c0-.565-.187-1.019-.56-1.36-.363-.352-.923-.528-1.68-.528h-2.496v4.096ZM40.895 5.8h6.784v1.248h-5.44v3.712h5.344v1.248h-5.344v3.744h5.536V17h-6.88V5.8Zm8.724 0h1.44l2.928 10.624h.192L57.107 5.8h1.44L55.38 17h-2.593L49.62 5.8Zm10.87 0h6.783v1.248h-5.44v3.712h5.344v1.248h-5.344v3.744h5.536V17h-6.88V5.8Zm15.38 10.624h.192V5.8h1.344V17h-2.688L71.485 6.376h-.192V17H69.95V5.8h2.688l3.232 10.624ZM80.98 5.8v7.424c0 .907.207 1.595.623 2.064.427.459 1.05.688 1.872.688.822 0 1.44-.23 1.856-.688.427-.47.64-1.157.64-2.064V5.8h1.344v7.424c0 1.301-.341 2.293-1.024 2.976-.683.683-1.621 1.024-2.816 1.024-1.195 0-2.133-.341-2.816-1.024-.683-.683-1.024-1.675-1.024-2.976V5.8h1.344Zm8.9 0h6.784v1.248h-5.44v3.712h5.344v1.248h-5.344v3.744h5.536V17h-6.88V5.8Zm10.789 6.464h4.8v1.152h-4.8v-1.152Zm8.213 3.488h.96V7.048h-.96V5.8h4.528c.533 0 1.002.075 1.408.224.416.15.762.352 1.04.608.288.256.501.565.64.928.149.352.224.736.224 1.152v.192c0 .31-.048.592-.144.848-.096.256-.23.485-.4.688a2.663 2.663 0 0 1-.608.528 2.86 2.86 0 0 1-.736.32v.192c.533.15.981.437 1.344.864.362.416.544.928.544 1.536v.192c0 .416-.075.805-.224 1.168a2.508 2.508 0 0 1-.64.928 3.016 3.016 0 0 1-1.04.608c-.406.15-.875.224-1.408.224h-4.528v-1.248Zm2.304 0h2.128c.629 0 1.141-.155 1.536-.464.394-.32.592-.757.592-1.312v-.096c0-.576-.187-1.03-.56-1.36-.374-.341-.88-.512-1.52-.512h-2.176v3.744Zm0-4.992h2.176c.64 0 1.146-.165 1.52-.496.373-.33.56-.784.56-1.36v-.096c0-.544-.198-.97-.592-1.28-.395-.32-.907-.48-1.536-.48h-2.128v3.712Zm7.541-.608c0-1.45.346-2.576 1.04-3.376.693-.8 1.658-1.2 2.896-1.2 1.237 0 2.202.4 2.896 1.2.693.8 1.04 1.925 1.04 3.376v2.496c0 1.493-.347 2.63-1.04 3.408-.694.779-1.659 1.168-2.896 1.168-1.238 0-2.203-.39-2.896-1.168-.694-.779-1.04-1.915-1.04-3.408v-2.496Zm3.936 5.824c.864 0 1.509-.293 1.936-.88.437-.597.656-1.445.656-2.544v-2.304c0-1.024-.219-1.85-.656-2.48-.427-.63-1.072-.944-1.936-.944-.864 0-1.515.315-1.952.944-.427.63-.64 1.456-.64 2.48v2.304c0 1.099.213 1.947.64 2.544.437.587 1.088.88 1.952.88Zm5.861-5.824c0-1.45.346-2.576 1.039-3.376.694-.8 1.659-1.2 2.897-1.2 1.237 0 2.202.4 2.896 1.2.693.8 1.04 1.925 1.04 3.376v2.496c0 1.493-.347 2.63-1.04 3.408-.694.779-1.659 1.168-2.896 1.168-1.238 0-2.203-.39-2.897-1.168-.693-.779-1.039-1.915-1.039-3.408v-2.496Zm3.936 5.824c.864 0 1.509-.293 1.936-.88.437-.597.656-1.445.656-2.544v-2.304c0-1.024-.219-1.85-.656-2.48-.427-.63-1.072-.944-1.936-.944-.864 0-1.515.315-1.952.944-.427.63-.64 1.456-.64 2.48v2.304c0 1.099.213 1.947.64 2.544.437.587 1.088.88 1.952.88Zm12.436-6.944c0-.363-.074-.683-.224-.96a1.885 1.885 0 0 0-.576-.688 2.731 2.731 0 0 0-.848-.416 3.49 3.49 0 0 0-1.008-.144 2.98 2.98 0 0 0-.88.128 2.535 2.535 0 0 0-.752.336c-.213.15-.384.336-.512.56a1.434 1.434 0 0 0-.192.752v.096c0 .31.064.576.192.8.128.213.315.4.56.56.256.15.571.277.944.384.374.096.811.181 1.312.256 1.174.181 2.038.528 2.592 1.04.555.501.832 1.179.832 2.032v.192c0 .48-.085.923-.256 1.328-.16.395-.405.736-.736 1.024a3.35 3.35 0 0 1-1.2.672c-.48.16-1.034.24-1.664.24-.714 0-1.349-.101-1.904-.304a4.094 4.094 0 0 1-1.376-.864 3.868 3.868 0 0 1-.832-1.296 4.525 4.525 0 0 1-.288-1.632v-.48h1.344v.384c0 .981.267 1.717.8 2.208.544.49 1.296.736 2.256.736.832 0 1.456-.181 1.872-.544.427-.373.64-.864.64-1.472v-.096c0-.587-.218-1.035-.656-1.344-.426-.31-1.125-.533-2.096-.672a8.63 8.63 0 0 1-1.536-.336 4.202 4.202 0 0 1-1.152-.608 2.63 2.63 0 0 1-.736-.912c-.17-.352-.256-.768-.256-1.248v-.192c0-.437.091-.837.272-1.2.182-.363.432-.677.752-.944.331-.267.72-.47 1.168-.608.459-.15.96-.224 1.504-.224.63 0 1.19.09 1.68.272.502.181.923.427 1.264.736.342.299.598.656.768 1.072.182.405.272.832.272 1.28v.672h-1.344v-.576Zm3.221-3.232h7.872v1.248h-3.264V17h-1.344V7.048h-3.264V5.8Zm10.181 0h7.104v1.248h-2.88v8.704h2.88V17h-7.104v-1.248h2.88V7.048h-2.88V5.8Zm15.541 10.624h.192V5.8h1.344V17h-2.688l-3.232-10.624h-.192V17h-1.344V5.8h2.688l3.232 10.624Zm6.533-4.8h4.992V17h-1.248v-1.344h-.192a2.3 2.3 0 0 1-.96 1.136c-.459.288-.992.432-1.6.432-1.205 0-2.155-.39-2.848-1.168-.683-.779-1.024-1.915-1.024-3.408v-2.496c0-1.45.347-2.576 1.04-3.376.693-.8 1.659-1.2 2.896-1.2.64 0 1.205.107 1.696.32.491.203.901.49 1.232.864.331.363.581.795.752 1.296a4.78 4.78 0 0 1 .256 1.584v.192h-1.344V9.64a3.51 3.51 0 0 0-.16-1.056 2.397 2.397 0 0 0-.464-.896 2.035 2.035 0 0 0-.8-.624c-.32-.16-.709-.24-1.168-.24-.864 0-1.515.315-1.952.944-.427.63-.64 1.456-.64 2.48v2.304c0 1.099.213 1.947.64 2.544.437.587 1.099.88 1.984.88.8 0 1.424-.256 1.872-.768.459-.512.688-1.227.688-2.144v-.192h-3.648v-1.248Z"/></svg>