<svg xmlns="http://www.w3.org/2000/svg" width="148" height="23" fill="none"><rect width="148" height="23" fill="#032538" rx="5"/><path fill="#C4EC94" d="M11.552 14.92v-1.344l6.208-2.08v-.192l-6.208-2.08V7.88l6.688 2.304v2.432l-6.688 2.304Zm19.21-9.12h3.68c1.386 0 2.4.33 3.04.992.64.661.96 1.717.96 3.168v2.88c0 1.45-.32 2.507-.96 3.168-.64.661-1.654.992-3.04.992h-3.68v-1.264h.96V7.048h-.96V5.8Zm3.488 9.952c.49 0 .912-.048 1.264-.144.362-.096.661-.256.896-.48.234-.235.405-.544.512-.928.117-.384.176-.87.176-1.456v-2.688c0-.587-.059-1.072-.176-1.456-.107-.384-.278-.688-.512-.912a1.94 1.94 0 0 0-.896-.496 4.85 4.85 0 0 0-1.264-.144h-1.184v8.704h1.184Zm12.437-1.536h-4.8L41.07 17h-1.44l3.392-11.2h2.528L48.943 17h-1.44l-.816-2.784Zm-2.496-7.84-1.936 6.592h4.064l-1.936-6.592h-.192Zm5.956-.576h7.873v1.248h-3.265V17h-1.344V7.048h-3.264V5.8Zm16.133 8.416h-4.8L60.664 17h-1.44l3.392-11.2h2.528L68.536 17h-1.44l-.816-2.784Zm-2.496-7.84-1.936 6.592h4.064l-1.936-6.592h-.192Zm7.493 5.888h4.8v1.152h-4.8v-1.152Zm8.47-6.464h3.68c1.386 0 2.4.33 3.04.992.64.661.96 1.717.96 3.168v2.88c0 1.45-.32 2.507-.96 3.168-.64.661-1.654.992-3.04.992h-3.68v-1.264h.96V7.048h-.96V5.8Zm3.487 9.952c.49 0 .912-.048 1.264-.144.363-.096.661-.256.896-.48.235-.235.405-.544.512-.928.117-.384.176-.87.176-1.456v-2.688c0-.587-.058-1.072-.176-1.456-.107-.384-.277-.688-.512-.912a1.94 1.94 0 0 0-.896-.496 4.85 4.85 0 0 0-1.264-.144H82.05v8.704h1.184ZM96.775 17h-1.344v-3.744c0-.277-.064-.49-.192-.64-.128-.15-.352-.224-.672-.224h-3.488V17h-1.344V5.8h4c.576 0 1.077.085 1.504.256.427.16.779.379 1.056.656.288.277.501.603.64.976.15.363.224.747.224 1.152v.48c0 .416-.117.832-.352 1.248-.224.416-.576.736-1.056.96v.192c.32.053.57.181.752.384.181.203.272.49.272.864V17Zm-5.696-5.856h2.496c.757 0 1.317-.16 1.68-.48.373-.33.56-.81.56-1.44v-.288c0-.565-.187-1.019-.56-1.36-.363-.352-.923-.528-1.68-.528h-2.496v4.096ZM99.516 5.8h7.104v1.248h-2.88v8.704h2.88V17h-7.104v-1.248h2.88V7.048h-2.88V5.8Zm8.885 0h1.44l2.928 10.624h.192L115.889 5.8h1.44L114.161 17h-2.592l-3.168-11.2Zm10.869 0h6.784v1.248h-5.44v3.712h5.344v1.248h-5.344v3.744h5.536V17h-6.88V5.8Zm15.381 10.624h.192V5.8h1.344V17h-2.688l-3.232-10.624h-.192V17h-1.344V5.8h2.688l3.232 10.624Z"/></svg>