<svg xmlns="http://www.w3.org/2000/svg" width="187" height="23" fill="none"><rect width="187" height="23" fill="#032538" rx="5"/><path fill="#90EAE1" d="M11.552 14.92v-1.344l6.208-2.08v-.192l-6.208-2.08V7.88l6.688 2.304v2.432l-6.688 2.304ZM30.986 5.8h1.344v9.952h5.856V17h-7.2V5.8Zm9.909 0h6.784v1.248h-5.44v3.712h5.344v1.248h-5.344v3.744h5.536V17h-6.88V5.8Zm15.588 8.416h-4.8L50.867 17h-1.44L52.82 5.8h2.528L58.74 17H57.3l-.816-2.784Zm-2.495-7.84-1.937 6.592h4.064L54.18 6.376h-.192Zm6.164-.576h3.68c1.387 0 2.4.33 3.04.992.64.661.96 1.717.96 3.168v2.88c0 1.45-.32 2.507-.96 3.168-.64.661-1.653.992-3.04.992h-3.68v-1.264h.96V7.048h-.96V5.8Zm3.488 9.952c.491 0 .912-.048 1.264-.144.363-.096.662-.256.896-.48.235-.235.406-.544.512-.928.118-.384.176-.87.176-1.456v-2.688c0-.587-.058-1.072-.176-1.456-.106-.384-.277-.688-.512-.912a1.94 1.94 0 0 0-.896-.496 4.85 4.85 0 0 0-1.264-.144h-1.184v8.704h1.184Zm7.637-3.488h4.8v1.152h-4.8v-1.152Zm11.125-.64h4.992V17h-1.248v-1.344h-.192c-.181.47-.501.848-.96 1.136-.459.288-.992.432-1.6.432-1.205 0-2.154-.39-2.848-1.168-.683-.779-1.024-1.915-1.024-3.408v-2.496c0-1.45.347-2.576 1.04-3.376.694-.8 1.659-1.2 2.896-1.2.64 0 1.206.107 1.696.32a3.3 3.3 0 0 1 1.232.864c.33.363.582.795.752 1.296.17.49.256 1.019.256 1.584v.192H86.05V9.64c0-.363-.053-.715-.16-1.056a2.391 2.391 0 0 0-.464-.896 2.034 2.034 0 0 0-.8-.624c-.32-.16-.71-.24-1.168-.24-.864 0-1.514.315-1.952.944-.427.63-.64 1.456-.64 2.48v2.304c0 1.099.213 1.947.64 2.544.438.587 1.099.88 1.984.88.8 0 1.424-.256 1.872-.768.459-.512.688-1.227.688-2.144v-.192h-3.648v-1.248ZM89.88 5.8h6.784v1.248h-5.44v3.712h5.344v1.248h-5.344v3.744h5.536V17h-6.88V5.8Zm15.381 10.624h.192V5.8h1.344V17h-2.688l-3.232-10.624h-.192V17H99.34V5.8h2.688l3.232 10.624ZM109.473 5.8h6.784v1.248h-5.44v3.712h5.344v1.248h-5.344v3.744h5.536V17h-6.88V5.8ZM126.166 17h-1.344v-3.744c0-.277-.064-.49-.192-.64-.128-.15-.352-.224-.672-.224h-3.488V17h-1.344V5.8h4c.576 0 1.077.085 1.504.256.426.16.778.379 1.056.656.288.277.501.603.64.976.149.363.224.747.224 1.152v.48c0 .416-.118.832-.352 1.248-.224.416-.576.736-1.056.96v.192c.32.053.57.181.752.384.181.203.272.49.272.864V17Zm-5.696-5.856h2.496c.757 0 1.317-.16 1.68-.48.373-.33.56-.81.56-1.44v-.288c0-.565-.187-1.019-.56-1.36-.363-.352-.923-.528-1.68-.528h-2.496v4.096Zm14.389 3.072h-4.8L129.243 17h-1.44l3.392-11.2h2.528l3.392 11.2h-1.44l-.816-2.784Zm-2.496-7.84-1.936 6.592h4.064l-1.936-6.592h-.192Zm5.956-.576h7.872v1.248h-3.264V17h-1.344V7.048h-3.264V5.8Zm10.181 0h7.104v1.248h-2.88v8.704h2.88V17H148.5v-1.248h2.88V7.048h-2.88V5.8Zm15.541 10.624h.192V5.8h1.344V17h-2.688l-3.232-10.624h-.192V17h-1.344V5.8h2.688l3.232 10.624Zm6.533-4.8h4.992V17h-1.248v-1.344h-.192a2.3 2.3 0 0 1-.96 1.136c-.459.288-.992.432-1.6.432-1.205 0-2.155-.39-2.848-1.168-.683-.779-1.024-1.915-1.024-3.408v-2.496c0-1.45.347-2.576 1.04-3.376.693-.8 1.659-1.2 2.896-1.2.64 0 1.205.107 1.696.32.491.203.901.49 1.232.864.331.363.581.795.752 1.296a4.78 4.78 0 0 1 .256 1.584v.192h-1.344V9.64a3.51 3.51 0 0 0-.16-1.056 2.397 2.397 0 0 0-.464-.896 2.035 2.035 0 0 0-.8-.624c-.32-.16-.709-.24-1.168-.24-.864 0-1.515.315-1.952.944-.427.63-.64 1.456-.64 2.48v2.304c0 1.099.213 1.947.64 2.544.437.587 1.099.88 1.984.88.8 0 1.424-.256 1.872-.768.459-.512.688-1.227.688-2.144v-.192h-3.648v-1.248Z"/></svg>