<svg xmlns="http://www.w3.org/2000/svg" width="191" height="23" fill="none"><rect width="190.923" height="23" fill="#032538" rx="5"/><path fill="#DCCCF0" d="M11.552 14.92v-1.344l6.208-2.08v-.192l-6.208-2.08V7.88l6.688 2.304v2.432l-6.688 2.304ZM30.986 5.8h1.344v9.952h5.856V17h-7.2V5.8Zm9.749 0h7.104v1.248h-2.88v8.704h2.88V17h-7.104v-1.248h2.88V7.048h-2.88V5.8Zm9.413 0h7.871v1.248h-3.264V17h-1.344V7.048h-3.264V5.8Zm10.34 0h6.784v1.248h-5.44v3.712h5.344v1.248h-5.344v3.744h5.536V17h-6.88V5.8ZM77.181 17h-1.344v-3.744c0-.277-.064-.49-.192-.64-.128-.15-.352-.224-.672-.224h-3.488V17h-1.344V5.8h4c.576 0 1.078.085 1.504.256.427.16.779.379 1.056.656.288.277.502.603.64.976.15.363.224.747.224 1.152v.48c0 .416-.117.832-.352 1.248-.224.416-.576.736-1.056.96v.192c.32.053.57.181.752.384.182.203.272.49.272.864V17Zm-5.696-5.856h2.496c.758 0 1.318-.16 1.68-.48.374-.33.56-.81.56-1.44v-.288c0-.565-.186-1.019-.56-1.36-.362-.352-.922-.528-1.68-.528h-2.496v4.096Zm14.39 3.072h-4.8L80.257 17h-1.44L82.21 5.8h2.528L88.13 17h-1.44l-.816-2.784Zm-2.497-7.84-1.936 6.592h4.064L83.57 6.376h-.192Zm6.389-.576h1.344v9.952h5.856V17h-7.2V5.8Zm18.938 0h2.56l1.504 10.624h.192L114.465 5.8h2.56V17h-1.248V6.376h-.192L114.081 17h-2.432l-1.504-10.624h-.192V17h-1.248V5.8Zm16.357 8.416h-4.8L119.446 17h-1.44l3.392-11.2h2.528l3.392 11.2h-1.44l-.816-2.784Zm-2.496-7.84-1.936 6.592h4.064l-1.936-6.592h-.192Zm8.821 5.248h4.991V17h-1.247v-1.344h-.192a2.31 2.31 0 0 1-.96 1.136c-.459.288-.992.432-1.6.432-1.206 0-2.155-.39-2.848-1.168-.683-.779-1.024-1.915-1.024-3.408v-2.496c0-1.45.346-2.576 1.04-3.376.693-.8 1.658-1.2 2.896-1.2.64 0 1.205.107 1.696.32.49.203.901.49 1.232.864.33.363.581.795.752 1.296.17.49.255 1.019.255 1.584v.192h-1.343V9.64c0-.363-.054-.715-.16-1.056a2.397 2.397 0 0 0-.464-.896 2.042 2.042 0 0 0-.8-.624c-.32-.16-.71-.24-1.168-.24-.864 0-1.515.315-1.952.944-.427.63-.64 1.456-.64 2.48v2.304c0 1.099.213 1.947.64 2.544.437.587 1.098.88 1.984.88.8 0 1.424-.256 1.872-.768.458-.512.688-1.227.688-2.144v-.192h-3.648v-1.248Zm7.316-5.824h7.104v1.248h-2.88v8.704h2.88V17h-7.104v-1.248h2.88V7.048h-2.88V5.8Zm13.413 10.176c.459 0 .848-.075 1.168-.224a2.24 2.24 0 0 0 .8-.624c.214-.267.368-.565.464-.896.107-.341.16-.699.16-1.072v-.192h1.344v.192c0 .565-.085 1.099-.256 1.6-.17.49-.421.923-.752 1.296-.33.363-.741.65-1.232.864-.49.203-1.056.304-1.696.304-1.237 0-2.202-.39-2.896-1.168-.693-.779-1.04-1.915-1.04-3.408v-2.496c0-1.45.347-2.576 1.04-3.376.694-.8 1.659-1.2 2.896-1.2.64 0 1.206.107 1.696.32.491.203.902.49 1.232.864.331.363.582.795.752 1.296a4.78 4.78 0 0 1 .256 1.584v.192h-1.344V9.64a3.87 3.87 0 0 0-.176-1.056 2.383 2.383 0 0 0-.464-.896 2.055 2.055 0 0 0-.784-.624c-.32-.16-.709-.24-1.168-.24-.864 0-1.514.315-1.952.944-.426.63-.64 1.456-.64 2.48v2.304c0 1.099.214 1.947.64 2.544.438.587 1.088.88 1.952.88ZM179.133 4a.274.274 0 0 0-.273.274v.87a.274.274 0 0 0 .549 0v-.87a.271.271 0 0 0-.17-.253.277.277 0 0 0-.106-.021Zm-5.478 1.138a.361.361 0 0 0-.241.096.56.56 0 0 0-.11.137c-.058.094-.103.2-.148.322-.09.245-.176.552-.259.866-.084.313-.164.632-.235.878a4.51 4.51 0 0 1-.095.302c-.011.029-.024.051-.033.068-.018.01-.04.023-.069.033-.073.028-.178.06-.301.096-.247.07-.564.151-.877.234-.314.084-.623.17-.868.26-.122.045-.228.09-.322.147a.592.592 0 0 0-.135.11.361.361 0 0 0-.097.242c0 .108.052.19.097.24.045.05.089.082.135.11.094.059.2.104.322.149.245.09.554.175.868.259.313.083.63.164.877.234.123.035.228.069.301.096a.46.46 0 0 1 .069.032c.009.017.022.04.033.069.027.073.06.179.095.302.071.246.151.563.235.877.083.314.169.621.259.866.045.122.09.228.148.322.028.047.06.092.11.137.05.045.132.097.241.097.109 0 .19-.052.241-.097a.587.587 0 0 0 .11-.137c.058-.094.103-.2.148-.322.09-.245.176-.552.259-.866.083-.314.164-.631.234-.877a5.04 5.04 0 0 1 .096-.302.46.46 0 0 1 .033-.068.486.486 0 0 1 .068-.033 4.24 4.24 0 0 1 .302-.096c.246-.07.563-.151.877-.234.313-.084.623-.169.867-.26.123-.044.228-.09.322-.147a.575.575 0 0 0 .136-.11.361.361 0 0 0 .097-.242.361.361 0 0 0-.097-.24.575.575 0 0 0-.136-.11 1.768 1.768 0 0 0-.322-.148c-.244-.09-.554-.176-.867-.26-.314-.083-.631-.164-.877-.234a4.311 4.311 0 0 1-.302-.096.463.463 0 0 1-.068-.033c-.009-.017-.022-.04-.033-.068a5.076 5.076 0 0 1-.096-.302c-.07-.246-.151-.565-.234-.878a10.273 10.273 0 0 0-.259-.866 1.766 1.766 0 0 0-.148-.322.584.584 0 0 0-.11-.137.363.363 0 0 0-.241-.096Zm-6.281.28a.274.274 0 0 0-.273.273v.871a.273.273 0 0 0 .273.276.272.272 0 0 0 .255-.17.274.274 0 0 0 .021-.106v-.87a.27.27 0 0 0-.17-.253.281.281 0 0 0-.106-.02Zm10.246.096a.275.275 0 0 0-.195.47.282.282 0 0 0 .195.08h.869a.275.275 0 0 0 0-.55h-.869Zm2.16 0a.274.274 0 0 0-.193.469c.051.051.121.08.193.08h.869c.073 0 .142-.029.193-.08a.27.27 0 0 0 .06-.298.255.255 0 0 0-.059-.09.274.274 0 0 0-.194-.081h-.869Zm-.647.646a.274.274 0 0 0-.273.274v.87a.273.273 0 0 0 .08.194.27.27 0 0 0 .299.06.275.275 0 0 0 .17-.254v-.87a.271.271 0 0 0-.17-.253.277.277 0 0 0-.106-.02Zm-13.272.773a.272.272 0 0 0-.255.17.274.274 0 0 0 .255.38h.869a.274.274 0 0 0 .253-.38.27.27 0 0 0-.148-.15.273.273 0 0 0-.105-.02h-.869Zm2.16 0a.28.28 0 0 0-.195.08.273.273 0 0 0-.059.3.275.275 0 0 0 .254.169h.869a.274.274 0 0 0 0-.55h-.869Zm-.647.646a.274.274 0 0 0-.273.273v.87a.273.273 0 0 0 .273.276.272.272 0 0 0 .255-.17.274.274 0 0 0 .021-.105v-.87a.27.27 0 0 0-.081-.194.282.282 0 0 0-.195-.08Zm.632 3.47a.342.342 0 0 0-.228.09.519.519 0 0 0-.098.12 1.43 1.43 0 0 0-.12.261 7.933 7.933 0 0 0-.203.679c-.065.244-.127.49-.182.68a3.553 3.553 0 0 1-.072.23.191.191 0 0 1-.013.029c-.01.005-.019.01-.03.014-.055.02-.135.046-.23.073-.19.055-.436.116-.68.181a8.006 8.006 0 0 0-.679.204c-.097.036-.182.07-.261.12a.5.5 0 0 0-.12.098.342.342 0 0 0-.09.227.34.34 0 0 0 .09.228c.041.046.08.072.12.097.079.049.164.084.261.12.194.071.435.138.679.203.244.065.49.128.68.182.095.027.175.052.23.072.011.004.021.01.03.014a.187.187 0 0 1 .013.029c.02.054.045.135.072.23.055.19.117.436.182.68.065.244.131.485.203.68.036.096.071.18.12.26.025.04.052.079.098.12.046.04.123.09.228.09.104 0 .181-.05.227-.09a.494.494 0 0 0 .098-.12 1.43 1.43 0 0 0 .12-.26 7.95 7.95 0 0 0 .202-.68c.065-.244.128-.49.182-.68a2.953 2.953 0 0 1 .086-.259.263.263 0 0 1 .03-.014c.054-.02.135-.045.229-.072.19-.054.436-.117.68-.182.244-.065.485-.132.679-.204.097-.035.183-.07.262-.12a.494.494 0 0 0 .12-.096.34.34 0 0 0 .09-.228.342.342 0 0 0-.09-.227.5.5 0 0 0-.12-.099 1.428 1.428 0 0 0-.262-.12 8.006 8.006 0 0 0-.679-.203c-.244-.065-.49-.126-.68-.18a3.366 3.366 0 0 1-.229-.074.263.263 0 0 1-.03-.014 2.94 2.94 0 0 1-.086-.259c-.054-.19-.117-.436-.182-.68a7.95 7.95 0 0 0-.202-.679 1.43 1.43 0 0 0-.12-.26.492.492 0 0 0-.098-.12.341.341 0 0 0-.227-.09Zm10.095.523c-.1 0-.174.048-.215.085a.422.422 0 0 0-.085.104c-.041.066-.067.131-.094.205a5.72 5.72 0 0 0-.152.503c-.047.179-.092.36-.132.496a2.41 2.41 0 0 1-.048.154c-.037.014-.09.03-.154.048-.137.04-.317.085-.496.133-.18.047-.357.097-.504.151a1.116 1.116 0 0 0-.204.094.444.444 0 0 0-.104.085.324.324 0 0 0-.084.216c0 .1.047.174.084.215a.437.437 0 0 0 .104.085c.065.04.131.067.204.094.147.055.324.104.504.151.179.048.359.093.496.133.064.018.117.034.154.048.013.036.03.09.048.154.04.137.085.317.132.496.048.18.097.357.152.504.027.074.053.138.094.204.02.033.043.067.085.104a.32.32 0 0 0 .215.085.324.324 0 0 0 .216-.085.447.447 0 0 0 .085-.104c.04-.066.067-.13.094-.204.054-.147.103-.325.151-.504s.093-.359.132-.496c.019-.065.036-.118.049-.154.037-.014.089-.03.154-.048.137-.04.317-.085.496-.133.179-.047.357-.096.503-.15.074-.028.139-.054.205-.095a.435.435 0 0 0 .103-.085.325.325 0 0 0 .085-.215c0-.101-.048-.174-.085-.216a.442.442 0 0 0-.103-.085 1.095 1.095 0 0 0-.205-.094 5.805 5.805 0 0 0-.503-.151c-.179-.048-.359-.093-.496-.133a2.509 2.509 0 0 1-.154-.048 3.11 3.11 0 0 1-.049-.154c-.039-.137-.084-.317-.132-.496a5.732 5.732 0 0 0-.151-.503 1.121 1.121 0 0 0-.094-.205c-.021-.032-.043-.067-.085-.104a.324.324 0 0 0-.216-.085Zm-5.589 3.849a.273.273 0 0 0-.254.168.291.291 0 0 0-.022.105v.87a.274.274 0 0 0 .17.255.278.278 0 0 0 .36-.15.29.29 0 0 0 .02-.105v-.87a.27.27 0 0 0-.081-.193.272.272 0 0 0-.193-.08Zm-1.516 1.513a.272.272 0 0 0-.273.276.275.275 0 0 0 .273.274h.87a.275.275 0 0 0 0-.55h-.87Zm2.161 0a.274.274 0 0 0 0 .55h.869a.282.282 0 0 0 .195-.08.27.27 0 0 0 .081-.194.274.274 0 0 0-.276-.276h-.869Zm-.645.647a.273.273 0 0 0-.254.169.291.291 0 0 0-.022.105v.87a.274.274 0 0 0 .17.254.28.28 0 0 0 .211 0 .273.273 0 0 0 .169-.254v-.87a.27.27 0 0 0-.081-.194.272.272 0 0 0-.193-.08Z"/></svg>