<svg xmlns="http://www.w3.org/2000/svg" width="151" height="208" fill="none"><path fill="#f3ece3" d="M7.04 79.02c0-26.4 18.26-41.14 42.24-41.36l55-.66-.66 24.2-54.12-.22c-12.76 0-16.28 9.9-16.28 15.18 0 16.5 34.32 49.94 72.6 80.96 8.58-6.16 17.38-15.62 17.38-29.04v-17.82l-58.74.44V90.9l62.26-.44.22 17.6v20.24c0 14.96-3.74 27.28-10.56 37.18L150.7 191h-41.58l-11-8.8c-12.1 7.04-27.28 10.56-44.44 10.56C25.52 192.76 0 167.24 0 138.42c0-12.1 7.7-23.98 17.16-31.46C11 97.5 7.04 88.04 7.04 79.02zm25.74 47.3c-8.8 3.3-27.06 16.28-27.06 25.74 0 16.5 37.18 17.38 47.96 17.38 8.14 0 17.16-.44 25.52-1.98-15.84-12.54-33-26.84-46.42-41.14z"/></svg>