<?xml version="1.0" encoding="UTF-8"?> <svg xmlns="http://www.w3.org/2000/svg" xmlns:v="https://vecta.io/nano" width="376" height="208" fill="#f3ece3"><path d="M297.548 64.3c-7.26-10.78-11-29.26-3.74-45.32l-18.04 12.1c-7.48 6.16-7.7 13.2-7.7 18.26 0 45.1 107.8 59.4 107.8 104.94 0 33.88-60.72 53.46-88 53.46-33.44 0-66.44-33-41.36-63.58l46.64-24.64 1.54 1.76c-17.6 8.36-25.3 19.58-25.3 34.76 0 41.8 83.16 56.76 83.16 15.62 0-56.54-106.04-46.86-106.04-107.58 0-19.8 33.88-37.62 48.18-47.08 20.46 45.32 52.58 48.18 58.74 8.36h1.54l-8.58 57.2c-18.04 0-38.28-2.86-48.84-18.26zm-79.303-40.7l.88-.22c3.74 5.94 7.48 19.58 7.48 34.32 0 9.9-2.42 22.88-11.66 22.88-16.5 0-25.96-45.76-56.54-45.76-7.48 0-30.8 3.3-23.76 31.24 11.44 45.76 68.64 14.96 68.64 33.22 0 11.66-22.44 3.96-33.66 3.74-22.66-.44-34.54 25.08-21.56 45.54 23.98 37.62 66 40.92 76.12 18.7 11.44-25.08-37.4-31.02-40.7-19.36-.88 3.52-.66 5.5 3.52 10.34l-1.1.66c-11.66-11.88-23.32-33.22-17.16-40.92 14.96-18.92 72.16 11.22 58.08 49.72-13.86 37.62-124.3 31.9-124.3-26.4 0-46.42 67.76-42.02 80.3-42.02v-1.32c-11.44-.44-77.88-3.08-77.88-43.56 0-11.22 5.06-32.78 29.48-32.78 30.8-.22 47.96 27.72 69.74 27.72 10.12 0 19.58-14.3 14.08-25.74zM0 185.52v-154h45.32c32.56 0 51.48 13.86 51.48 64.24 0 40.48-12.1 90.2-65.12 89.76H0zm31.9-19.8c35.64.44 37.84-40.48 37.84-62.48 0-46.64-9.9-52.14-26.62-51.92H27.06v114.4h4.84z"></path></svg> 