<?xml version="1.0" encoding="UTF-8"?> <svg xmlns="http://www.w3.org/2000/svg" xmlns:v="https://vecta.io/nano" width="1132" height="208" fill="#f3ece3"><path d="M1042.18 19.36L1075.62 0c-.44 20.24-12.32 42.68-51.04 62.92 45.54-16.5 84.26-23.32 106.7-27.28L1093 84.92l-.88-.44c3.08-4.18 15.18-32.12 0-32.12-27.72 0-69.3 38.5-69.3 98.56 0 6.16-.44 34.1 14.96 34.1 16.72 0 57.2-33.44 68.42-66l.88.44-17.16 60.28c-7.92 7.04-22.66 11-36.96 11-32.56 0-58.519-20.9-58.519-48.18 0-40.7 58.299-75.46 75.679-86.46-29.92 15.18-44.66 27.5-66.88 31.9-12.539 2.42-16.939-12.54-10.999-24.86l10.999-22.44.66.22c-9.239 16.28 10.78 15.4 18.04 15.4 7.48 0 14.52-2.64 17.38-6.16 5.94-7.92 4.84-20.24 2.86-30.8zm-238.067 2.86l1.32.44c-3.08 11.22 3.52 26.62 14.08 26.62 22.44 0 37.62-29.04 72.6-28.82 25.3.22 47.96 22.44 30.58 56.76-12.76 25.08-54.56 72.16-54.56 98.12 0 8.8 4.84 19.14 15.62 19.14 42.46 0 36.96-88.44 58.96-143.66 9.02-22.66 41.58-28.38 60.497-28.38h32.34l-.44 1.98c-12.32 0-21.56-.66-33.22 5.5-32.337 17.38-50.157 110-70.617 137.72-7.48 10.34-23.98 29.48-47.74 29.48-14.52 0-44.66-11.88-44.66-39.82 0-41.58 67.1-55.22 82.72-85.14 3.3-6.38 4.18-13.42 3.3-18.7-1.98-11.44-29.7-16.5-45.32-18.26-36.08 71.72-61.16 159.5-101.2 159.5l8.36-55.66c33.66 1.54 70.62-66 88.88-104.06l-6.16-.44c-33.44 0-44 47.08-60.94 47.08-9.9 0-12.32-13.42-12.32-23.54 0-15.4 3.96-29.7 7.92-35.86zm-123.17 96.36l-.22 47.3h92.84v19.8h-119.68v-154h119.02v19.8h-91.96v47.3h91.96v19.8h-91.96zm-89.244-86.9h51.04l-1.76 154h-26.18V59.84l-19.58 125.84h-52.14l-20.02-128.92-1.54 128.92h-25.96v-154h50.16l23.1 147.62 22.88-147.62zM417.115 113.3l-.22 72.38h-26.84v-154h44.44c27.28 0 52.36 8.36 52.36 39.38 0 28.38-20.9 42.24-52.36 42.24h-17.38zm0-20.9h17.38c14.74 0 25.3-3.3 25.3-20.02 0-16.5-10.56-20.02-25.3-19.8h-17.38V92.4zm-42.153 4.84c0 1.98.22 7.04 0 12.54-1.76 47.52-46.42 86.68-77.44 86.68-31.46 0-45.98-24.2-49.72-56.98-40.26-12.76-54.34-61.16-36.3-84.04 15.62-20.24 37.62 2.64 45.76 20.02h-.66c-6.38-13.2-24.2-13.42-35.86 1.1-18.7 23.1-1.76 57.86 38.06 63.14-6.16-1.54-11.44-3.74-11.44-5.94 0-60.94 56.32-113.74 104.5-113.74 14.96 0 36.08 11.22 36.08 38.06 0 45.98-61.82 82.06-111.76 84.48-.66 24.42 2.64 51.48 21.34 51.48 31.24 0 42.02-43.56 44.22-51.92 2.86-11.66 3.96-19.14 4.4-21.56 11.66-7.26 18.04-12.54 28.82-23.32zm-85.36 18.48l-1.54-.44c-.44-24.64 11.44-71.5 46.2-69.52 28.38 1.54 40.26 24.86 40.48 45.54 7.26-10.12 11.66-21.12 11.66-32.78 0-24.64-19.36-35.86-37.62-35.86-30.8 0-56.32 32.56-67.76 74.8-5.94 22.44-4.84 36.08-4.84 42.9 24.42-.88 50.38-9.68 70.84-23.32 9.9-41.58 10.12-63.14-12.54-65.78-34.1-4.18-45.98 42.02-44.88 64.46zm-78.299 49.06l-.22 20.9h-73.04v-154h28.38l-1.32 133.1h46.2zM115.72 23.76l.88-.22c3.74 5.94 7.48 19.58 7.48 34.32 0 9.9-2.42 22.88-11.66 22.88-16.5 0-25.96-45.76-56.54-45.76-7.48 0-30.8 3.3-23.76 31.24 11.44 45.76 68.64 14.96 68.64 33.22 0 11.66-22.44 3.96-33.66 3.74-22.66-.44-34.54 25.08-21.56 45.54 23.98 37.62 66 40.92 76.12 18.7 11.44-25.08-37.4-31.02-40.7-19.36-.88 3.52-.66 5.5 3.52 10.34l-1.1.66c-11.66-11.88-23.32-33.22-17.16-40.92 14.96-18.92 72.16 11.22 58.08 49.72C110.44 205.48 0 199.76 0 141.46c0-46.42 67.76-42.02 80.3-42.02v-1.32c-11.44-.44-77.88-3.08-77.88-43.56 0-11.22 5.06-32.78 29.48-32.78 30.8-.22 47.96 27.72 69.74 27.72 10.12 0 19.58-14.3 14.08-25.74z"></path></svg> 