<svg xmlns="http://www.w3.org/2000/svg" width="158" height="23" fill="none"><rect width="158" height="23" fill="#032538" rx="5"/><path fill="#90EAE1" d="M11.552 14.92v-1.344l6.208-2.08v-.192l-6.208-2.08V7.88l6.688 2.304v2.432l-6.688 2.304ZM31.994 5.8v7.424c0 .907.208 1.595.624 2.064.426.459 1.05.688 1.872.688.821 0 1.44-.23 1.856-.688.426-.47.64-1.157.64-2.064V5.8h1.344v7.424c0 1.301-.342 2.293-1.024 2.976-.683.683-1.622 1.024-2.816 1.024-1.195 0-2.134-.341-2.816-1.024-.683-.683-1.024-1.675-1.024-2.976V5.8h1.344Zm14.933 3.232c0-.363-.075-.683-.224-.96a1.897 1.897 0 0 0-.576-.688 2.735 2.735 0 0 0-.848-.416 3.49 3.49 0 0 0-1.008-.144c-.31 0-.603.043-.88.128a2.531 2.531 0 0 0-.752.336c-.214.15-.384.336-.512.56a1.434 1.434 0 0 0-.192.752v.096c0 .31.064.576.192.8.128.213.314.4.56.56.256.15.57.277.944.384.373.096.81.181 1.312.256 1.173.181 2.037.528 2.592 1.04.554.501.832 1.179.832 2.032v.192c0 .48-.086.923-.256 1.328-.16.395-.406.736-.736 1.024a3.35 3.35 0 0 1-1.2.672c-.48.16-1.035.24-1.664.24-.715 0-1.35-.101-1.904-.304a4.088 4.088 0 0 1-1.376-.864 3.858 3.858 0 0 1-.832-1.296 4.525 4.525 0 0 1-.288-1.632v-.48h1.344v.384c0 .981.266 1.717.8 2.208.544.49 1.296.736 2.256.736.832 0 1.456-.181 1.872-.544.426-.373.64-.864.64-1.472v-.096c0-.587-.219-1.035-.656-1.344-.427-.31-1.126-.533-2.096-.672a8.618 8.618 0 0 1-1.536-.336 4.202 4.202 0 0 1-1.152-.608 2.627 2.627 0 0 1-.736-.912c-.171-.352-.256-.768-.256-1.248v-.192c0-.437.09-.837.272-1.2.181-.363.432-.677.752-.944.33-.267.72-.47 1.168-.608.458-.15.96-.224 1.504-.224.629 0 1.189.09 1.68.272a3.76 3.76 0 0 1 1.264.736c.341.299.597.656.768 1.072.181.405.272.832.272 1.28v.672h-1.344v-.576ZM50.69 5.8h6.784v1.248h-5.44v3.712h5.345v1.248h-5.345v3.744h5.537V17h-6.88V5.8ZM67.385 17H66.04v-3.744c0-.277-.064-.49-.192-.64-.128-.15-.352-.224-.672-.224h-3.488V17h-1.344V5.8h4c.576 0 1.078.085 1.504.256.427.16.779.379 1.056.656.288.277.502.603.64.976.15.363.224.747.224 1.152v.48c0 .416-.117.832-.352 1.248-.224.416-.576.736-1.056.96v.192c.32.053.571.181.752.384.182.203.272.49.272.864V17Zm-5.696-5.856h2.496c.758 0 1.318-.16 1.68-.48.374-.33.56-.81.56-1.44v-.288c0-.565-.186-1.019-.56-1.36-.362-.352-.922-.528-1.68-.528h-2.496v4.096Zm9.59 1.12h4.8v1.152h-4.8v-1.152Zm12.26 3.712c.459 0 .848-.075 1.168-.224.33-.16.597-.368.8-.624.213-.267.368-.565.464-.896.107-.341.16-.699.16-1.072v-.192h1.344v.192a4.93 4.93 0 0 1-.256 1.6c-.17.49-.421.923-.752 1.296-.33.363-.741.65-1.232.864-.49.203-1.056.304-1.696.304-1.237 0-2.203-.39-2.896-1.168-.693-.779-1.04-1.915-1.04-3.408v-2.496c0-1.45.347-2.576 1.04-3.376.694-.8 1.659-1.2 2.896-1.2.64 0 1.206.107 1.696.32a3.3 3.3 0 0 1 1.232.864c.33.363.582.795.752 1.296.17.49.256 1.019.256 1.584v.192H86.13V9.64a3.905 3.905 0 0 0-.176-1.056 2.391 2.391 0 0 0-.464-.896 2.06 2.06 0 0 0-.784-.624c-.32-.16-.71-.24-1.168-.24-.864 0-1.514.315-1.952.944-.427.63-.64 1.456-.64 2.48v2.304c0 1.099.213 1.947.64 2.544.438.587 1.088.88 1.952.88ZM89.88 5.8h6.784v1.248h-5.44v3.712h5.344v1.248h-5.344v3.744h5.536V17h-6.88V5.8Zm15.381 10.624h.192V5.8h1.344V17h-2.688l-3.232-10.624h-.192V17H99.34V5.8h2.688l3.232 10.624ZM108.929 5.8h7.872v1.248h-3.264V17h-1.344V7.048h-3.264V5.8ZM126.166 17h-1.344v-3.744c0-.277-.064-.49-.192-.64-.128-.15-.352-.224-.672-.224h-3.488V17h-1.344V5.8h4c.576 0 1.077.085 1.504.256.426.16.778.379 1.056.656.288.277.501.603.64.976.149.363.224.747.224 1.152v.48c0 .416-.118.832-.352 1.248-.224.416-.576.736-1.056.96v.192c.32.053.57.181.752.384.181.203.272.49.272.864V17Zm-5.696-5.856h2.496c.757 0 1.317-.16 1.68-.48.373-.33.56-.81.56-1.44v-.288c0-.565-.187-1.019-.56-1.36-.363-.352-.923-.528-1.68-.528h-2.496v4.096Zm8.437-5.344h7.103v1.248h-2.879v8.704h2.879V17h-7.103v-1.248h2.879V7.048h-2.879V5.8Zm13.412 10.176c.459 0 .848-.075 1.168-.224a2.24 2.24 0 0 0 .8-.624c.214-.267.368-.565.464-.896.107-.341.16-.699.16-1.072v-.192h1.344v.192c0 .565-.085 1.099-.256 1.6-.17.49-.421.923-.752 1.296-.33.363-.741.65-1.232.864-.49.203-1.056.304-1.696.304-1.237 0-2.202-.39-2.896-1.168-.693-.779-1.04-1.915-1.04-3.408v-2.496c0-1.45.347-2.576 1.04-3.376.694-.8 1.659-1.2 2.896-1.2.64 0 1.206.107 1.696.32.491.203.902.49 1.232.864.331.363.582.795.752 1.296a4.78 4.78 0 0 1 .256 1.584v.192h-1.344V9.64a3.87 3.87 0 0 0-.176-1.056 2.383 2.383 0 0 0-.464-.896 2.055 2.055 0 0 0-.784-.624c-.32-.16-.709-.24-1.168-.24-.864 0-1.514.315-1.952.944-.426.63-.64 1.456-.64 2.48v2.304c0 1.099.214 1.947.64 2.544.438.587 1.088.88 1.952.88Z"/></svg>