<?xml version="1.0" encoding="UTF-8"?> <svg xmlns="http://www.w3.org/2000/svg" width="191" height="23" viewBox="0 0 191 23" fill="none"><rect width="190.923" height="23" rx="5" fill="#032538"></rect><path d="M11.552 14.92V13.576L17.76 11.496V11.304L11.552 9.224V7.88L18.24 10.184V12.616L11.552 14.92ZM30.9858 5.8H32.3298V15.752H38.1858V17H30.9858V5.8ZM40.7346 5.8H47.8386V7.048H44.9586V15.752H47.8386V17H40.7346V15.752H43.6146V7.048H40.7346V5.8ZM50.1475 5.8H58.0195V7.048H54.7555V17H53.4115V7.048H50.1475V5.8ZM60.4884 5.8H67.2724V7.048H61.8324V10.76H67.1764V12.008H61.8324V15.752H67.3684V17H60.4884V5.8ZM77.1813 17H75.8373V13.256C75.8373 12.9787 75.7733 12.7653 75.6453 12.616C75.5173 12.4667 75.2933 12.392 74.9733 12.392H71.4853V17H70.1413V5.8H74.1413C74.7173 5.8 75.2186 5.88533 75.6453 6.056C76.0719 6.216 76.4239 6.43467 76.7013 6.712C76.9893 6.98933 77.2026 7.31467 77.3413 7.688C77.4906 8.05067 77.5653 8.43467 77.5653 8.84V9.32C77.5653 9.736 77.4479 10.152 77.2133 10.568C76.9893 10.984 76.6373 11.304 76.1573 11.528V11.72C76.4773 11.7733 76.7279 11.9013 76.9093 12.104C77.0906 12.3067 77.1813 12.5947 77.1813 12.968V17ZM71.4853 11.144H73.9813C74.7386 11.144 75.2986 10.984 75.6613 10.664C76.0346 10.3333 76.2213 9.85333 76.2213 9.224V8.936C76.2213 8.37067 76.0346 7.91733 75.6613 7.576C75.2986 7.224 74.7386 7.048 73.9813 7.048H71.4853V11.144ZM85.8741 14.216H81.0741L80.2581 17H78.8181L82.2101 5.8H84.7381L88.1301 17H86.6901L85.8741 14.216ZM83.3781 6.376L81.4421 12.968H85.5061L83.5701 6.376H83.3781ZM89.767 5.8H91.111V15.752H96.967V17H89.767V5.8ZM108.705 5.8H111.265L112.769 16.424H112.961L114.465 5.8H117.025V17H115.777V6.376H115.585L114.081 17H111.649L110.145 6.376H109.953V17H108.705V5.8ZM125.062 14.216H120.262L119.446 17H118.006L121.398 5.8H123.926L127.318 17H125.878L125.062 14.216ZM122.566 6.376L120.63 12.968H124.694L122.758 6.376H122.566ZM131.387 11.624H136.378V17H135.131V15.656H134.939C134.757 16.1253 134.437 16.504 133.979 16.792C133.52 17.08 132.987 17.224 132.379 17.224C131.173 17.224 130.224 16.8347 129.531 16.056C128.848 15.2773 128.507 14.1413 128.507 12.648V10.152C128.507 8.70133 128.853 7.576 129.547 6.776C130.24 5.976 131.205 5.576 132.443 5.576C133.083 5.576 133.648 5.68267 134.139 5.896C134.629 6.09867 135.04 6.38667 135.371 6.76C135.701 7.12267 135.952 7.55467 136.123 8.056C136.293 8.54667 136.378 9.07467 136.378 9.64V9.832H135.035V9.64C135.035 9.27733 134.981 8.92533 134.875 8.584C134.779 8.24267 134.624 7.944 134.411 7.688C134.208 7.42133 133.941 7.21333 133.611 7.064C133.291 6.904 132.901 6.824 132.443 6.824C131.579 6.824 130.928 7.13867 130.491 7.768C130.064 8.39733 129.851 9.224 129.851 10.248V12.552C129.851 13.6507 130.064 14.4987 130.491 15.096C130.928 15.6827 131.589 15.976 132.475 15.976C133.275 15.976 133.899 15.72 134.347 15.208C134.805 14.696 135.035 13.9813 135.035 13.064V12.872H131.387V11.624ZM138.703 5.8H145.807V7.048H142.927V15.752H145.807V17H138.703V15.752H141.583V7.048H138.703V5.8ZM152.116 15.976C152.575 15.976 152.964 15.9013 153.284 15.752C153.615 15.592 153.882 15.384 154.084 15.128C154.298 14.8613 154.452 14.5627 154.548 14.232C154.655 13.8907 154.708 13.5333 154.708 13.16V12.968H156.052V13.16C156.052 13.7253 155.967 14.2587 155.796 14.76C155.626 15.2507 155.375 15.6827 155.044 16.056C154.714 16.4187 154.303 16.7067 153.812 16.92C153.322 17.1227 152.756 17.224 152.116 17.224C150.879 17.224 149.914 16.8347 149.22 16.056C148.527 15.2773 148.18 14.1413 148.18 12.648V10.152C148.18 8.70133 148.527 7.576 149.22 6.776C149.914 5.976 150.879 5.576 152.116 5.576C152.756 5.576 153.322 5.68267 153.812 5.896C154.303 6.09867 154.714 6.38667 155.044 6.76C155.375 7.12267 155.626 7.55467 155.796 8.056C155.967 8.54667 156.052 9.07467 156.052 9.64V9.832H154.708V9.64C154.698 9.27733 154.639 8.92533 154.532 8.584C154.436 8.24267 154.282 7.944 154.068 7.688C153.866 7.42133 153.604 7.21333 153.284 7.064C152.964 6.904 152.575 6.824 152.116 6.824C151.252 6.824 150.602 7.13867 150.164 7.768C149.738 8.39733 149.524 9.224 149.524 10.248V12.552C149.524 13.6507 149.738 14.4987 150.164 15.096C150.602 15.6827 151.252 15.976 152.116 15.976Z" fill="#DCCCF0"></path><path d="M179.133 4C179.061 4.00028 178.991 4.02926 178.94 4.0806C178.889 4.13195 178.86 4.20148 178.86 4.27402V5.14325C178.86 5.21569 178.889 5.28509 178.94 5.33631C178.992 5.38754 179.061 5.41644 179.133 5.41672C179.169 5.41687 179.205 5.40991 179.239 5.39624C179.272 5.38257 179.302 5.36247 179.328 5.33707C179.353 5.31168 179.374 5.28149 179.388 5.24823C179.402 5.21498 179.409 5.1793 179.409 5.14325V4.27402C179.409 4.23792 179.402 4.20218 179.388 4.16887C179.374 4.13555 179.354 4.1053 179.328 4.07984C179.302 4.05439 179.272 4.03424 179.239 4.02054C179.205 4.00684 179.17 3.99986 179.133 4ZM173.655 5.13788C173.546 5.13788 173.464 5.18905 173.414 5.23387C173.364 5.27871 173.332 5.32419 173.304 5.37115C173.246 5.46506 173.201 5.57057 173.156 5.69289C173.066 5.93751 172.98 6.24538 172.897 6.5589C172.813 6.87242 172.733 7.19101 172.662 7.43725C172.627 7.56037 172.594 7.66578 172.567 7.73915C172.556 7.76788 172.543 7.79033 172.534 7.80724C172.516 7.8171 172.494 7.82984 172.465 7.84049C172.392 7.86799 172.287 7.90066 172.164 7.93594C171.917 8.00649 171.6 8.08697 171.287 8.17027C170.973 8.25357 170.664 8.33946 170.419 8.42981C170.297 8.47497 170.191 8.51935 170.097 8.57727C170.051 8.60623 170.007 8.63741 169.962 8.68773C169.917 8.73806 169.865 8.81963 169.865 8.9285C169.865 9.03737 169.917 9.11894 169.962 9.16927C170.007 9.21959 170.051 9.25077 170.097 9.27973C170.191 9.33765 170.297 9.38256 170.419 9.42773C170.664 9.51808 170.973 9.60343 171.287 9.68673C171.6 9.77003 171.917 9.85051 172.164 9.92106C172.287 9.95634 172.392 9.98955 172.465 10.0171C172.494 10.0277 172.517 10.0396 172.534 10.0492C172.543 10.0664 172.556 10.0891 172.567 10.1179C172.594 10.1912 172.627 10.2966 172.662 10.4198C172.733 10.666 172.813 10.9835 172.897 11.297C172.98 11.6106 173.066 11.9184 173.156 12.1631C173.201 12.2854 173.246 12.3909 173.304 12.4848C173.332 12.5317 173.364 12.5772 173.414 12.6221C173.464 12.6669 173.546 12.7191 173.655 12.7191C173.764 12.7191 173.845 12.6669 173.896 12.6221C173.946 12.5772 173.977 12.5317 174.006 12.4848C174.064 12.3909 174.109 12.2854 174.154 12.1631C174.244 11.9184 174.33 11.6106 174.413 11.297C174.496 10.9835 174.577 10.666 174.647 10.4198C174.683 10.2966 174.716 10.1912 174.743 10.1179C174.754 10.0893 174.766 10.0669 174.776 10.0498C174.793 10.0401 174.816 10.0278 174.844 10.0171C174.917 9.98955 175.023 9.95634 175.146 9.92106C175.392 9.85051 175.709 9.77003 176.023 9.68673C176.336 9.60343 176.646 9.51808 176.89 9.42773C177.013 9.38257 177.118 9.33765 177.212 9.27973C177.259 9.25077 177.303 9.21959 177.348 9.16927C177.393 9.11894 177.445 9.03737 177.445 8.9285C177.445 8.81963 177.393 8.73806 177.348 8.68773C177.303 8.63741 177.259 8.60623 177.212 8.57727C177.118 8.51935 177.013 8.47498 176.89 8.42981C176.646 8.33946 176.336 8.25357 176.023 8.17027C175.709 8.08697 175.392 8.00649 175.146 7.93594C175.023 7.90066 174.917 7.86799 174.844 7.84049C174.816 7.82979 174.793 7.81711 174.776 7.80724C174.767 7.79033 174.754 7.76787 174.743 7.73915C174.716 7.66578 174.683 7.56037 174.647 7.43725C174.577 7.19101 174.496 6.87242 174.413 6.5589C174.33 6.24538 174.244 5.93751 174.154 5.69289C174.109 5.57057 174.064 5.46506 174.006 5.37115C173.977 5.3242 173.946 5.2787 173.896 5.23387C173.845 5.18904 173.764 5.13788 173.655 5.13788ZM167.374 5.41887C167.302 5.41915 167.233 5.44806 167.181 5.49928C167.13 5.55051 167.101 5.61991 167.101 5.69235V6.56212C167.101 6.63493 167.129 6.70487 167.181 6.75656C167.232 6.80825 167.302 6.83745 167.374 6.83774C167.411 6.83788 167.447 6.83085 167.48 6.81705C167.514 6.80325 167.544 6.78295 167.57 6.75733C167.595 6.73171 167.616 6.70126 167.629 6.66776C167.643 6.63426 167.65 6.59835 167.65 6.56212V5.69235C167.65 5.65629 167.643 5.62062 167.629 5.58736C167.615 5.55411 167.594 5.52392 167.569 5.49852C167.543 5.47313 167.513 5.45302 167.48 5.43936C167.446 5.42569 167.41 5.41873 167.374 5.41887ZM177.62 5.51432C177.583 5.51418 177.548 5.52121 177.514 5.53501C177.48 5.54881 177.45 5.56911 177.424 5.59473C177.399 5.62035 177.379 5.65079 177.365 5.6843C177.351 5.7178 177.344 5.75371 177.344 5.78994C177.344 5.826 177.351 5.86167 177.365 5.89493C177.379 5.92818 177.4 5.95837 177.425 5.98377C177.451 6.00916 177.481 6.02927 177.514 6.04293C177.548 6.0566 177.584 6.06356 177.62 6.06342H178.489C178.561 6.06314 178.631 6.03424 178.682 5.98301C178.733 5.93179 178.762 5.86239 178.762 5.78994C178.763 5.75389 178.756 5.71816 178.742 5.68479C178.728 5.65143 178.708 5.62108 178.683 5.59549C178.657 5.56989 178.627 5.54955 178.594 5.53562C178.561 5.5217 178.525 5.51446 178.489 5.51432H177.62ZM179.78 5.51432C179.744 5.51446 179.708 5.5217 179.675 5.53563C179.642 5.54955 179.612 5.5699 179.586 5.59549C179.561 5.62108 179.541 5.65143 179.527 5.68479C179.513 5.71816 179.507 5.75389 179.507 5.78994C179.507 5.86239 179.536 5.93178 179.587 5.98301C179.638 6.03423 179.708 6.06314 179.78 6.06342H180.649C180.722 6.06314 180.791 6.03423 180.842 5.98301C180.894 5.93178 180.923 5.86239 180.923 5.78994C180.923 5.75389 180.916 5.71816 180.902 5.68479C180.889 5.65143 180.869 5.62108 180.843 5.59549C180.818 5.5699 180.788 5.54955 180.754 5.53563C180.721 5.5217 180.685 5.51446 180.649 5.51432H179.78ZM179.133 6.16048C179.061 6.16076 178.991 6.18974 178.94 6.24108C178.889 6.29242 178.86 6.36195 178.86 6.43449V7.30372C178.86 7.33978 178.867 7.37551 178.88 7.40887C178.894 7.44223 178.914 7.47258 178.94 7.49817C178.965 7.52377 178.995 7.54411 179.028 7.55804C179.062 7.57196 179.097 7.5792 179.133 7.57934C179.17 7.57949 179.206 7.57245 179.239 7.55865C179.273 7.54485 179.303 7.52456 179.329 7.49893C179.354 7.47331 179.375 7.44287 179.388 7.40937C179.402 7.37586 179.409 7.33996 179.409 7.30372V6.43449C179.409 6.39839 179.402 6.36266 179.388 6.32934C179.374 6.29602 179.354 6.26577 179.328 6.24032C179.302 6.21487 179.272 6.19471 179.239 6.18101C179.205 6.16731 179.17 6.16033 179.133 6.16048ZM165.861 6.93265C165.824 6.93251 165.788 6.93954 165.755 6.95334C165.721 6.96714 165.691 6.98744 165.665 7.01306C165.64 7.03868 165.619 7.06912 165.606 7.10263C165.592 7.13613 165.585 7.17204 165.585 7.20827C165.585 7.24437 165.592 7.28011 165.606 7.31342C165.62 7.34674 165.64 7.37699 165.666 7.40244C165.692 7.4279 165.722 7.44805 165.755 7.46175C165.789 7.47545 165.825 7.48243 165.861 7.48229H166.73C166.802 7.48215 166.872 7.45323 166.923 7.40188C166.975 7.35052 167.004 7.2809 167.004 7.20827C167.004 7.17217 166.997 7.1364 166.983 7.103C166.97 7.0696 166.949 7.03923 166.924 7.01363C166.899 6.98803 166.868 6.9677 166.835 6.9538C166.802 6.93991 166.766 6.93272 166.73 6.93265H165.861ZM168.021 6.93265C167.985 6.93251 167.949 6.93954 167.915 6.95334C167.882 6.96714 167.852 6.98744 167.826 7.01306C167.8 7.03869 167.78 7.06913 167.766 7.10263C167.752 7.13613 167.745 7.17204 167.745 7.20827C167.746 7.24437 167.753 7.2801 167.767 7.31342C167.781 7.34674 167.801 7.37699 167.826 7.40244C167.852 7.42789 167.882 7.44805 167.916 7.46175C167.949 7.47545 167.985 7.48243 168.021 7.48229H168.89C168.963 7.48214 169.033 7.45323 169.084 7.40187C169.135 7.35052 169.164 7.2809 169.164 7.20827C169.164 7.17217 169.158 7.1364 169.144 7.103C169.13 7.0696 169.11 7.03924 169.085 7.01363C169.059 6.98803 169.029 6.9677 168.995 6.95381C168.962 6.93991 168.926 6.93272 168.89 6.93265H168.021ZM167.374 7.57934C167.302 7.57963 167.233 7.60853 167.181 7.65976C167.13 7.71098 167.101 7.78038 167.101 7.85282V8.72259C167.101 8.7954 167.129 8.86535 167.181 8.91704C167.232 8.96873 167.302 8.99793 167.374 8.99821C167.411 8.99836 167.447 8.99132 167.48 8.97752C167.514 8.96372 167.544 8.94342 167.57 8.9178C167.595 8.89218 167.616 8.86174 167.629 8.82823C167.643 8.79473 167.65 8.75882 167.65 8.72259V7.85282C167.65 7.81677 167.643 7.78109 167.629 7.74784C167.615 7.71458 167.594 7.68439 167.569 7.659C167.543 7.6336 167.513 7.6135 167.48 7.59983C167.446 7.58616 167.41 7.5792 167.374 7.57934ZM168.006 11.0498C167.901 11.0498 167.824 11.0985 167.778 11.1394C167.732 11.1803 167.705 11.2199 167.68 11.2595C167.631 11.3388 167.596 11.4231 167.56 11.5201C167.488 11.7141 167.422 11.9549 167.357 12.199C167.292 12.4431 167.23 12.6892 167.175 12.8789C167.148 12.9737 167.123 13.0552 167.103 13.1095C167.099 13.1201 167.095 13.1292 167.09 13.1379C167.08 13.1427 167.071 13.1477 167.06 13.1519C167.005 13.1722 166.925 13.1981 166.83 13.2253C166.64 13.2797 166.394 13.3412 166.15 13.406C165.906 13.4709 165.665 13.5381 165.471 13.6098C165.374 13.6456 165.289 13.6805 165.21 13.7294C165.17 13.7538 165.131 13.7816 165.09 13.8275C165.049 13.8734 165 13.9508 165 14.0554C165 14.16 165.049 14.2368 165.09 14.2828C165.131 14.3287 165.17 14.3554 165.21 14.3798C165.289 14.4287 165.374 14.4636 165.471 14.4994C165.665 14.5711 165.906 14.6383 166.15 14.7032C166.394 14.768 166.64 14.8306 166.83 14.885C166.925 14.9121 167.005 14.937 167.06 14.9573C167.071 14.9615 167.081 14.9665 167.09 14.9713C167.095 14.98 167.099 14.989 167.103 14.9997C167.123 15.054 167.148 15.1354 167.175 15.2303C167.23 15.42 167.292 15.6661 167.357 15.9102C167.422 16.1543 167.488 16.3951 167.56 16.5891C167.596 16.6861 167.631 16.7704 167.68 16.8497C167.705 16.8894 167.732 16.9289 167.778 16.9698C167.824 17.0107 167.901 17.0604 168.006 17.0604C168.11 17.0604 168.187 17.0107 168.233 16.9698C168.279 16.9289 168.307 16.8893 168.331 16.8497C168.38 16.7704 168.415 16.6861 168.451 16.5891C168.522 16.3951 168.589 16.1543 168.653 15.9102C168.718 15.6661 168.781 15.42 168.835 15.2303C168.862 15.1355 168.887 15.054 168.908 14.9997C168.912 14.989 168.916 14.98 168.921 14.9713C168.93 14.9665 168.94 14.9615 168.951 14.9573C169.005 14.937 169.086 14.9121 169.18 14.885C169.37 14.8306 169.616 14.768 169.86 14.7032C170.104 14.6383 170.345 14.5711 170.539 14.4994C170.636 14.4636 170.722 14.4287 170.801 14.3798C170.841 14.3554 170.88 14.3287 170.921 14.2828C170.962 14.2368 171.011 14.16 171.011 14.0554C171.011 13.9508 170.962 13.8734 170.921 13.8275C170.88 13.7816 170.841 13.7538 170.801 13.7294C170.722 13.6805 170.636 13.6456 170.539 13.6098C170.345 13.5381 170.104 13.4709 169.86 13.406C169.616 13.3412 169.37 13.2797 169.18 13.2253C169.086 13.1981 169.005 13.1722 168.951 13.1519C168.94 13.1477 168.93 13.1427 168.921 13.1379C168.916 13.1292 168.912 13.1201 168.908 13.1095C168.887 13.0552 168.862 12.9738 168.835 12.8789C168.781 12.6892 168.718 12.4431 168.653 12.199C168.589 11.9549 168.522 11.7141 168.451 11.5201C168.415 11.4231 168.38 11.3388 168.331 11.2595C168.307 11.2198 168.279 11.1803 168.233 11.1394C168.187 11.0985 168.11 11.0498 168.006 11.0498ZM178.101 11.5721C178.001 11.5721 177.927 11.6196 177.886 11.6569C177.844 11.6941 177.821 11.7286 177.801 11.7614C177.76 11.827 177.734 11.8923 177.707 11.9657C177.652 12.1126 177.603 12.2894 177.555 12.4687C177.508 12.648 177.463 12.8284 177.423 12.9653C177.405 13.0299 177.388 13.0825 177.375 13.1192C177.338 13.1325 177.285 13.1489 177.221 13.1674C177.084 13.2066 176.904 13.2522 176.725 13.2999C176.545 13.3475 176.368 13.3968 176.221 13.4511C176.148 13.4782 176.083 13.5044 176.017 13.5449C175.984 13.5652 175.951 13.5883 175.913 13.6302C175.876 13.672 175.829 13.745 175.829 13.8457C175.829 13.9464 175.876 14.0195 175.913 14.0613C175.951 14.1032 175.984 14.1258 176.017 14.146C176.082 14.1865 176.148 14.2133 176.221 14.2404C176.368 14.2946 176.545 14.3435 176.725 14.3911C176.904 14.4387 177.084 14.4843 177.221 14.5235C177.285 14.5421 177.338 14.5584 177.375 14.5718C177.388 14.6084 177.405 14.6613 177.423 14.7262C177.463 14.8631 177.508 15.043 177.555 15.2222C177.603 15.4015 177.652 15.5795 177.707 15.7263C177.734 15.7997 177.76 15.8644 177.801 15.9301C177.821 15.9629 177.844 15.9968 177.886 16.0341C177.927 16.0714 178 16.1188 178.101 16.1188C178.202 16.1188 178.275 16.0714 178.317 16.0341C178.359 15.9968 178.381 15.9629 178.402 15.9301C178.442 15.8644 178.469 15.7997 178.496 15.7263C178.55 15.5795 178.599 15.4015 178.647 15.2222C178.695 15.043 178.74 14.8631 178.779 14.7262C178.798 14.6613 178.815 14.6084 178.828 14.5718C178.865 14.5584 178.917 14.5421 178.982 14.5235C179.119 14.4843 179.299 14.4387 179.478 14.3911C179.657 14.3435 179.835 14.2946 179.981 14.2404C180.055 14.2133 180.12 14.1865 180.186 14.146C180.218 14.1258 180.252 14.1032 180.289 14.0613C180.326 14.0195 180.374 13.9464 180.374 13.8457C180.374 13.745 180.326 13.672 180.289 13.6302C180.252 13.5883 180.218 13.5652 180.186 13.5449C180.12 13.5044 180.055 13.4782 179.981 13.4511C179.835 13.3969 179.657 13.3475 179.478 13.2999C179.299 13.2522 179.119 13.2066 178.982 13.1674C178.917 13.1489 178.865 13.1325 178.828 13.1192C178.815 13.0825 178.798 13.0299 178.779 12.9653C178.74 12.8284 178.695 12.648 178.647 12.4687C178.6 12.2894 178.55 12.1126 178.496 11.9657C178.469 11.8923 178.442 11.827 178.402 11.7614C178.381 11.7286 178.359 11.6941 178.317 11.6569C178.275 11.6196 178.202 11.5721 178.101 11.5721ZM172.512 15.4207C172.476 15.4205 172.44 15.4275 172.407 15.4411C172.374 15.4548 172.343 15.4749 172.318 15.5003C172.292 15.5257 172.272 15.5559 172.258 15.5891C172.244 15.6224 172.237 15.6581 172.236 15.6941V16.5639C172.236 16.6001 172.243 16.636 172.257 16.6695C172.271 16.703 172.291 16.7335 172.317 16.7591C172.342 16.7847 172.373 16.805 172.406 16.8188C172.44 16.8326 172.476 16.8397 172.512 16.8395C172.548 16.8395 172.584 16.8323 172.617 16.8184C172.651 16.8045 172.681 16.7841 172.706 16.7585C172.732 16.7329 172.752 16.7026 172.766 16.6692C172.779 16.6358 172.786 16.6 172.786 16.5639V15.6941C172.786 15.6216 172.757 15.5521 172.705 15.5009C172.654 15.4496 172.585 15.4208 172.512 15.4207ZM170.996 16.9344C170.923 16.9347 170.854 16.9639 170.802 17.0156C170.751 17.0673 170.722 17.1372 170.723 17.2101C170.723 17.2826 170.752 17.3521 170.803 17.4035C170.854 17.4548 170.924 17.4838 170.996 17.4841H171.866C171.938 17.4838 172.008 17.4548 172.059 17.4035C172.11 17.3521 172.139 17.2826 172.139 17.2101C172.14 17.174 172.133 17.1383 172.119 17.1049C172.105 17.0715 172.085 17.0412 172.06 17.0156C172.034 16.99 172.004 16.9697 171.971 16.9557C171.938 16.9418 171.902 16.9346 171.866 16.9344H170.996ZM173.157 16.9344C173.084 16.9347 173.014 16.9639 172.963 17.0156C172.911 17.0673 172.883 17.1372 172.883 17.2101C172.883 17.2826 172.912 17.3521 172.963 17.4035C173.015 17.4548 173.084 17.4838 173.157 17.4841H174.026C174.062 17.4842 174.098 17.4772 174.132 17.4635C174.165 17.4498 174.195 17.4297 174.221 17.4042C174.247 17.3788 174.267 17.3485 174.281 17.3152C174.295 17.2819 174.302 17.2462 174.302 17.2101C174.302 17.1738 174.295 17.1379 174.281 17.1044C174.267 17.0709 174.247 17.0405 174.222 17.0148C174.196 16.9892 174.166 16.9689 174.132 16.9551C174.099 16.9413 174.063 16.9343 174.026 16.9344H173.157ZM172.512 17.5811C172.476 17.581 172.44 17.5879 172.407 17.6016C172.374 17.6153 172.343 17.6354 172.318 17.6608C172.292 17.6862 172.272 17.7164 172.258 17.7496C172.244 17.7829 172.237 17.8186 172.236 17.8546V18.7244C172.236 18.7606 172.243 18.7965 172.257 18.83C172.271 18.8635 172.291 18.894 172.317 18.9196C172.342 18.9452 172.373 18.9655 172.406 18.9793C172.44 18.9931 172.476 19.0001 172.512 19C172.548 18.9999 172.584 18.9927 172.617 18.9788C172.651 18.9649 172.681 18.9446 172.706 18.919C172.732 18.8934 172.752 18.863 172.766 18.8296C172.779 18.7962 172.786 18.7605 172.786 18.7244V17.8546C172.786 17.7821 172.757 17.7126 172.705 17.6614C172.654 17.6101 172.585 17.5813 172.512 17.5811Z" fill="#DCCCF0"></path></svg> 