<svg xmlns="http://www.w3.org/2000/svg" width="384" height="208" fill="#f3ece3"><path d="m295.896 32.22 59.62 147.4V32.22h28.38l-1.76 154h-50.6l-58.3-143.88-1.54 143.88h-26.62v-154h50.82zM115.59 110.1c0 32.56 20.68 54.56 56.54 54.56 14.74 0 35.64-3.74 38.06-42.9v-2.64h-72.6v-19.8h96.14v86.9h-23.54v-31.9c-5.06 24.2-22.66 33.66-45.54 33.66-41.8 0-71.5-31.24-71.5-77.88s29.7-77.88 74.8-77.88h65.12l-.22 23.76-64.9-.44c-31.68 0-52.36 22-52.36 54.56zm-69.83 83.38-38.5-23.76 24.42-30.14V54.22c-2.86-.66-5.94-1.1-9.02-1.1-7.92 0-14.52 6.82-20.46 14.96L0 66.32 44 21l38.5 23.76-16.06 19.8v50.38l-27.06 30.14 27.06 16.28c8.8 0 16.28-8.36 21.12-14.96l2.2 1.76-44 45.32z"/></svg>