<?xml version="1.0" encoding="UTF-8"?>
<svg xmlns="http://www.w3.org/2000/svg" xmlns:xlink="http://www.w3.org/1999/xlink" width="30px" height="41px" viewBox="0 0 30 41" version="1.1">
<g id="surface1">
<path style=" stroke:none;fill-rule:nonzero;fill:rgb(95.294118%,92.54902%,89.019608%);fill-opacity:1;" d="M 1.398438 15.625 C 1.398438 10.46875 5.027344 7.589844 9.792969 7.546875 L 20.71875 7.417969 L 20.585938 12.144531 L 9.835938 12.101562 C 7.300781 12.101562 6.597656 14.035156 6.597656 15.0625 C 6.597656 18.285156 13.417969 24.816406 21.023438 30.871094 C 22.726562 29.667969 24.476562 27.820312 24.476562 25.199219 L 24.476562 21.722656 L 12.808594 21.808594 L 12.808594 17.941406 L 25.175781 17.855469 L 25.21875 21.292969 L 25.21875 25.242188 C 25.21875 28.164062 24.476562 30.570312 23.121094 32.503906 L 29.941406 37.484375 L 21.679688 37.484375 L 19.496094 35.769531 C 17.089844 37.140625 14.074219 37.828125 10.664062 37.828125 C 5.070312 37.828125 0 32.847656 0 27.21875 C 0 24.859375 1.53125 22.539062 3.410156 21.078125 C 2.183594 19.230469 1.398438 17.382812 1.398438 15.625 Z M 6.511719 24.859375 C 4.765625 25.5 1.136719 28.035156 1.136719 29.882812 C 1.136719 33.105469 8.523438 33.277344 10.664062 33.277344 C 12.28125 33.277344 14.074219 33.191406 15.734375 32.890625 C 12.589844 30.441406 9.179688 27.648438 6.511719 24.859375 Z M 6.511719 24.859375 "/>
</g>
</svg>
