<svg xmlns="http://www.w3.org/2000/svg" width="487" height="208" fill="#f3ece3"><path d="M441.886 103.593c17.6 0 43.78 7.7 43.78 39.38 0 30.14-23.98 43.34-51.92 43.12h-48.4v-154h44.44c27.94-1.76 52.36 9.02 52.36 36.96 0 27.06-22.66 34.1-40.26 34.1v.44zm-29.48-9.9h17.38c14.74 0 25.3-6.6 25.3-22.22 0-14.52-10.56-19.8-25.3-19.58h-17.38v41.8zm0 72.6h21.56c15.4.22 24.64-9.68 24.64-26.62 0-16.72-14.08-26.4-28.82-26.18h-17.38v52.8zm-131.532-47.3-.22 47.3h92.84v19.8h-119.68v-154h119.02v19.8h-91.96v47.3h91.96v19.801h-91.96zm-142.54 1.1c-18.26 23.98 2.42 34.98 10.12 35.42 102.74 5.28 91.3-70.62 72.16-87.12-10.12-8.8-26.4-4.18-35.86 9.46l-1.1-.44 35.64-55c57.42 22.66 3.52 163.46-50.82 163.02-27.5-.22-48.84-36.52-36.74-75.24l5.06-16.06c-12.1 32.34-34.32 76.12-77.88 87.12l-24.2 6.16c-1.76 2.86 2.86 8.8-.88 10.12-3.08.88-5.5-3.3-3.3-7.26l23.98-41.8 12.32-1.54c14.96-22.22 27.72-43.78 27.72-72.82 0-38.06-33-48.18-62.26-29.04-29.48 19.14-27.72 66 12.54 64.68 16.06-.44 35.2-21.12 44-36.74l1.32 1.32c-8.14 13.42-27.94 36.3-41.36 47.3-17.6 14.3-49.28 9.68-47.74-27.06 1.1-24.86 14.74-40.7 35.86-55.66 24.86-17.82 86.24-31.9 86.24 13.86 0 36.08-29.7 64.9-53.02 93.72 36.3-5.5 59.84-23.76 75.68-86.24l2.86-.22v.22l35.86-.88-46.2 60.72z"/></svg>