<svg xmlns="http://www.w3.org/2000/svg" width="246" height="23" fill="none"><rect width="246" height="23" fill="#032538" rx="5"/><path fill="#F5B380" d="M11.552 14.92v-1.344l6.208-2.08v-.192l-6.208-2.08V7.88l6.688 2.304v2.432l-6.688 2.304ZM37.13 9.032c0-.363-.075-.683-.224-.96a1.899 1.899 0 0 0-.576-.688 2.736 2.736 0 0 0-.848-.416 3.49 3.49 0 0 0-1.008-.144c-.31 0-.603.043-.88.128a2.53 2.53 0 0 0-.752.336c-.214.15-.384.336-.512.56a1.434 1.434 0 0 0-.192.752v.096c0 .31.064.576.192.8.128.213.314.4.56.56.256.15.57.277.944.384.373.096.81.181 1.312.256 1.173.181 2.037.528 2.592 1.04.554.501.832 1.179.832 2.032v.192c0 .48-.086.923-.256 1.328-.16.395-.406.736-.736 1.024a3.35 3.35 0 0 1-1.2.672c-.48.16-1.035.24-1.664.24-.715 0-1.35-.101-1.904-.304a4.087 4.087 0 0 1-1.376-.864 3.857 3.857 0 0 1-.832-1.296 4.525 4.525 0 0 1-.288-1.632v-.48h1.344v.384c0 .981.266 1.717.8 2.208.544.49 1.296.736 2.256.736.832 0 1.456-.181 1.872-.544.426-.373.64-.864.64-1.472v-.096c0-.587-.219-1.035-.656-1.344-.427-.31-1.126-.533-2.096-.672a8.614 8.614 0 0 1-1.536-.336 4.202 4.202 0 0 1-1.152-.608 2.626 2.626 0 0 1-.736-.912c-.17-.352-.256-.768-.256-1.248v-.192c0-.437.09-.837.272-1.2.181-.363.432-.677.752-.944.33-.267.72-.47 1.168-.608.458-.15.96-.224 1.504-.224.63 0 1.19.09 1.68.272.501.181.922.427 1.264.736.341.299.597.656.768 1.072a3.1 3.1 0 0 1 .272 1.28v.672H37.13v-.576ZM40.35 5.8h7.873v1.248h-3.264V17h-1.344V7.048H40.35V5.8ZM57.588 17h-1.344v-3.744c0-.277-.064-.49-.192-.64-.128-.15-.352-.224-.672-.224h-3.487V17h-1.345V5.8h4c.577 0 1.078.085 1.505.256.426.16.778.379 1.056.656.288.277.5.603.64.976.149.363.224.747.224 1.152v.48c0 .416-.118.832-.352 1.248-.224.416-.576.736-1.056.96v.192c.32.053.57.181.752.384.18.203.271.49.271.864V17Zm-5.696-5.856h2.497c.757 0 1.317-.16 1.68-.48.373-.33.56-.81.56-1.44v-.288c0-.565-.187-1.019-.56-1.36-.363-.352-.923-.528-1.68-.528h-2.496v4.096Zm14.39 3.072h-4.8L60.663 17h-1.44l3.392-11.2h2.528L68.536 17h-1.44l-.816-2.784Zm-2.497-7.84-1.936 6.592h4.064l-1.936-6.592h-.192Zm5.957-.576h7.872v1.248H74.35V17h-1.344V7.048h-3.264V5.8Zm10.341 0h6.784v1.248h-5.44v3.712h5.344v1.248h-5.344v3.744h5.536V17h-6.88V5.8ZM92.2 11.624h4.992V17h-1.248v-1.344h-.192c-.181.47-.501.848-.96 1.136-.459.288-.992.432-1.6.432-1.205 0-2.155-.39-2.848-1.168-.683-.779-1.024-1.915-1.024-3.408v-2.496c0-1.45.347-2.576 1.04-3.376.693-.8 1.659-1.2 2.896-1.2.64 0 1.205.107 1.696.32.49.203.901.49 1.232.864.33.363.581.795.752 1.296.17.49.256 1.019.256 1.584v.192h-1.344V9.64c0-.363-.053-.715-.16-1.056a2.393 2.393 0 0 0-.464-.896 2.035 2.035 0 0 0-.8-.624c-.32-.16-.71-.24-1.168-.24-.864 0-1.515.315-1.952.944-.427.63-.64 1.456-.64 2.48v2.304c0 1.099.213 1.947.64 2.544.437.587 1.099.88 1.984.88.8 0 1.424-.256 1.872-.768.459-.512.688-1.227.688-2.144v-.192h-3.648v-1.248ZM99.516 5.8h7.104v1.248h-2.88v8.704h2.88V17h-7.104v-1.248h2.88V7.048h-2.88V5.8Zm13.413 10.176c.458 0 .848-.075 1.168-.224.33-.16.597-.368.8-.624a2.57 2.57 0 0 0 .464-.896c.106-.341.16-.699.16-1.072v-.192h1.344v.192a4.95 4.95 0 0 1-.256 1.6c-.171.49-.422.923-.752 1.296-.331.363-.742.65-1.232.864-.491.203-1.056.304-1.696.304-1.238 0-2.203-.39-2.896-1.168-.694-.779-1.04-1.915-1.04-3.408v-2.496c0-1.45.346-2.576 1.04-3.376.693-.8 1.658-1.2 2.896-1.2.64 0 1.205.107 1.696.32.49.203.901.49 1.232.864.33.363.581.795.752 1.296.17.49.256 1.019.256 1.584v.192h-1.344V9.64a3.948 3.948 0 0 0-.176-1.056 2.397 2.397 0 0 0-.464-.896 2.063 2.063 0 0 0-.784-.624c-.32-.16-.71-.24-1.168-.24-.864 0-1.515.315-1.952.944-.427.63-.64 1.456-.64 2.48v2.304c0 1.099.213 1.947.64 2.544.437.587 1.088.88 1.952.88Zm12.133-1.76h-4.8L119.446 17h-1.44l3.392-11.2h2.528l3.392 11.2h-1.44l-.816-2.784Zm-2.496-7.84-1.936 6.592h4.064l-1.936-6.592h-.192Zm6.389-.576h1.344v9.952h5.856V17h-7.2V5.8Zm9.796 0h1.344v9.952h5.856V17h-7.2V5.8Zm12.629 7.264h-.288L147.588 5.8h1.504l2.864 6.112h.192l2.864-6.112h1.504l-3.504 7.264h-.288V17h-1.344v-3.936Zm22.666 1.152h-4.8L168.43 17h-1.44l3.392-11.2h2.528l3.392 11.2h-1.44l-.816-2.784Zm-2.496-7.84-1.936 6.592h4.064l-1.936-6.592h-.192Zm6.389-.576h1.344v9.952h5.856V17h-7.2V5.8Zm9.749 0h7.104v1.248h-2.88v8.704h2.88V17h-7.104v-1.248h2.88V7.048h-2.88V5.8Zm12.277 5.824h4.992V17h-1.248v-1.344h-.192a2.31 2.31 0 0 1-.96 1.136c-.459.288-.992.432-1.6.432-1.206 0-2.155-.39-2.848-1.168-.683-.779-1.024-1.915-1.024-3.408v-2.496c0-1.45.346-2.576 1.04-3.376.693-.8 1.658-1.2 2.896-1.2.64 0 1.205.107 1.696.32.49.203.901.49 1.232.864.33.363.581.795.752 1.296.17.49.256 1.019.256 1.584v.192h-1.344V9.64c0-.363-.054-.715-.16-1.056a2.397 2.397 0 0 0-.464-.896 2.042 2.042 0 0 0-.8-.624c-.32-.16-.71-.24-1.168-.24-.864 0-1.515.315-1.952.944-.427.63-.64 1.456-.64 2.48v2.304c0 1.099.213 1.947.64 2.544.437.587 1.098.88 1.984.88.8 0 1.424-.256 1.872-.768.458-.512.688-1.227.688-2.144v-.192h-3.648v-1.248Zm13.061 4.8h.192V5.8h1.344V17h-2.688l-3.232-10.624h-.192V17h-1.344V5.8h2.688l3.232 10.624ZM217.238 5.8h6.784v1.248h-5.44v3.712h5.344v1.248h-5.344v3.744h5.536V17h-6.88V5.8Zm9.461 0h3.68c1.387 0 2.4.33 3.04.992.64.661.96 1.717.96 3.168v2.88c0 1.45-.32 2.507-.96 3.168-.64.661-1.653.992-3.04.992h-3.68v-1.264h.96V7.048h-.96V5.8Zm3.488 9.952c.491 0 .912-.048 1.264-.144.363-.096.662-.256.896-.48.235-.235.406-.544.512-.928.118-.384.176-.87.176-1.456v-2.688c0-.587-.058-1.072-.176-1.456-.106-.384-.277-.688-.512-.912a1.935 1.935 0 0 0-.896-.496 4.849 4.849 0 0 0-1.264-.144h-1.184v8.704h1.184Z"/></svg>