<svg xmlns="http://www.w3.org/2000/svg" width="187" height="23" fill="none"><rect width="187" height="23" fill="#032538" rx="5"/><path fill="#FF6E6E" d="M11.552 14.92v-1.344l6.208-2.08v-.192l-6.208-2.08V7.88l6.688 2.304v2.432l-6.688 2.304ZM30.33 5.8h2.56l1.504 10.624h.192L36.09 5.8h2.56V17h-1.248V6.376h-.192L35.706 17h-2.432L31.77 6.376h-.192V17H30.33V5.8Zm10.02 4.352c0-1.45.347-2.576 1.04-3.376.694-.8 1.66-1.2 2.897-1.2 1.237 0 2.202.4 2.896 1.2.693.8 1.04 1.925 1.04 3.376v2.496c0 1.493-.347 2.63-1.04 3.408-.694.779-1.659 1.168-2.896 1.168-1.238 0-2.203-.39-2.896-1.168-.694-.779-1.04-1.915-1.04-3.408v-2.496Zm3.937 5.824c.864 0 1.509-.293 1.936-.88.437-.597.656-1.445.656-2.544v-2.304c0-1.024-.219-1.85-.656-2.48-.427-.63-1.072-.944-1.936-.944-.864 0-1.515.315-1.952.944-.427.63-.64 1.456-.64 2.48v2.304c0 1.099.213 1.947.64 2.544.437.587 1.088.88 1.952.88Zm5.813-.224h.96V7.048h-.96V5.8h4.527c.534 0 1.003.075 1.408.224.417.15.763.352 1.04.608.288.256.502.565.64.928.15.352.224.736.224 1.152v.192a2.328 2.328 0 0 1-.544 1.536 2.642 2.642 0 0 1-1.344.848v.192c.534.15.982.437 1.344.864.363.416.544.928.544 1.536v.192c0 .416-.074.805-.224 1.168a2.504 2.504 0 0 1-.64.928 3.01 3.01 0 0 1-1.04.608c-.405.15-.874.224-1.407.224h-4.529v-1.248Zm2.303 0h2.129c.629 0 1.14-.155 1.536-.464.394-.32.592-.757.592-1.312v-.096c0-.576-.187-1.03-.56-1.36-.374-.341-.88-.512-1.52-.512h-2.176v3.744Zm0-4.992h2.177c.64 0 1.146-.165 1.52-.496.373-.33.56-.784.56-1.36v-.096c0-.544-.198-.97-.592-1.28-.395-.32-.907-.48-1.536-.48h-2.128v3.712Zm7.925-4.96h7.104v1.248h-2.88v8.704h2.88V17h-7.104v-1.248h2.88V7.048h-2.88V5.8Zm9.845 0h1.344v9.952h5.856V17h-7.2V5.8Zm9.91 0h6.783v1.248h-5.44v3.712h5.344v1.248h-5.344v3.744h5.536V17h-6.88V5.8Zm10.788 6.464h4.8v1.152h-4.8v-1.152Zm8.82-6.464h6.881v1.248h-5.536v3.712h5.44v1.248h-5.44V17h-1.344V5.8ZM116.37 17h-1.344v-3.744c0-.277-.064-.49-.192-.64-.128-.15-.352-.224-.672-.224h-3.488V17h-1.344V5.8h4c.576 0 1.077.085 1.504.256.426.16.778.379 1.056.656.288.277.501.603.64.976.149.363.224.747.224 1.152v.48c0 .416-.118.832-.352 1.248-.224.416-.576.736-1.056.96v.192c.32.053.57.181.752.384.181.203.272.49.272.864V17Zm-5.696-5.856h2.496c.757 0 1.317-.16 1.68-.48.373-.33.56-.81.56-1.44v-.288c0-.565-.187-1.019-.56-1.36-.363-.352-.923-.528-1.68-.528h-2.496v4.096ZM119.11 5.8h7.104v1.248h-2.88v8.704h2.88V17h-7.104v-1.248h2.88V7.048h-2.88V5.8Zm9.957 0h6.784v1.248h-5.44v3.712h5.344v1.248h-5.344v3.744h5.536V17h-6.88V5.8Zm15.38 10.624h.192V5.8h1.344V17h-2.688l-3.232-10.624h-.192V17h-1.344V5.8h2.688l3.232 10.624ZM148.324 5.8h3.68c1.387 0 2.4.33 3.04.992.64.661.96 1.717.96 3.168v2.88c0 1.45-.32 2.507-.96 3.168-.64.661-1.653.992-3.04.992h-3.68v-1.264h.96V7.048h-.96V5.8Zm3.488 9.952c.491 0 .912-.048 1.264-.144.363-.096.662-.256.896-.48.235-.235.406-.544.512-.928.118-.384.176-.87.176-1.456v-2.688c0-.587-.058-1.072-.176-1.456-.106-.384-.277-.688-.512-.912a1.935 1.935 0 0 0-.896-.496 4.849 4.849 0 0 0-1.264-.144h-1.184v8.704h1.184Zm6.533-9.952h1.344v9.952h5.856V17h-7.2V5.8Zm12.629 7.264h-.288L167.182 5.8h1.504l2.864 6.112h.192l2.864-6.112h1.504l-3.504 7.264h-.288V17h-1.344v-3.936Z"/></svg>