<svg xmlns="http://www.w3.org/2000/svg" width="246" height="23" fill="none"><rect width="246" height="23" fill="#032538" rx="5"/><path fill="#F5B380" d="M11.552 14.92v-1.344l6.208-2.08v-.192l-6.208-2.08V7.88l6.688 2.304v2.432l-6.688 2.304Zm20.746-2.528V17h-1.344V5.8h4c.576 0 1.077.085 1.504.256.426.16.778.379 1.056.656.288.277.501.603.64.976.15.363.224.747.224 1.152v.48c0 .405-.075.795-.224 1.168a2.738 2.738 0 0 1-.64.992 3.281 3.281 0 0 1-1.072.672c-.427.16-.923.24-1.488.24h-2.656Zm0-1.248h2.496c1.493 0 2.24-.64 2.24-1.92v-.288c0-.565-.187-1.019-.56-1.36-.363-.352-.923-.528-1.68-.528h-2.496v4.096ZM40.895 5.8h6.784v1.248h-5.44v3.712h5.344v1.248h-5.344v3.744h5.536V17h-6.88V5.8ZM57.587 17h-1.344v-3.744c0-.277-.064-.49-.192-.64-.128-.15-.352-.224-.672-.224h-3.487V17h-1.345V5.8h4c.577 0 1.078.085 1.505.256.426.16.778.379 1.056.656.288.277.5.603.64.976.149.363.224.747.224 1.152v.48c0 .416-.118.832-.352 1.248-.224.416-.576.736-1.056.96v.192c.32.053.57.181.752.384.18.203.271.49.271.864V17Zm-5.696-5.856h2.497c.757 0 1.317-.16 1.68-.48.373-.33.56-.81.56-1.44v-.288c0-.565-.187-1.019-.56-1.36-.363-.352-.923-.528-1.68-.528h-2.496v4.096ZM60.505 5.8h6.88v1.248h-5.536v3.712h5.44v1.248h-5.44V17h-1.344V5.8Zm9.237 4.352c0-1.45.347-2.576 1.04-3.376.694-.8 1.659-1.2 2.896-1.2 1.238 0 2.203.4 2.896 1.2.694.8 1.04 1.925 1.04 3.376v2.496c0 1.493-.346 2.63-1.04 3.408-.693.779-1.658 1.168-2.896 1.168-1.237 0-2.202-.39-2.896-1.168-.693-.779-1.04-1.915-1.04-3.408v-2.496Zm3.936 5.824c.864 0 1.51-.293 1.936-.88.438-.597.656-1.445.656-2.544v-2.304c0-1.024-.218-1.85-.656-2.48-.426-.63-1.072-.944-1.936-.944-.864 0-1.514.315-1.952.944-.426.63-.64 1.456-.64 2.48v2.304c0 1.099.214 1.947.64 2.544.438.587 1.088.88 1.952.88ZM86.978 17h-1.344v-3.744c0-.277-.064-.49-.192-.64-.128-.15-.352-.224-.672-.224h-3.488V17h-1.344V5.8h4c.576 0 1.078.085 1.504.256.427.16.779.379 1.056.656.288.277.501.603.64.976.15.363.224.747.224 1.152v.48c0 .416-.117.832-.352 1.248-.224.416-.576.736-1.056.96v.192c.32.053.57.181.752.384.181.203.272.49.272.864V17Zm-5.696-5.856h2.496c.757 0 1.317-.16 1.68-.48.374-.33.56-.81.56-1.44v-.288c0-.565-.186-1.019-.56-1.36-.362-.352-.922-.528-1.68-.528h-2.496v4.096ZM89.111 5.8h2.56l1.504 10.624h.192L94.871 5.8h2.56V17h-1.248V6.376h-.192L94.487 17h-2.432L90.551 6.376h-.192V17h-1.248V5.8Zm16.357 8.416h-4.8L99.852 17h-1.44l3.392-11.2h2.528l3.392 11.2h-1.44l-.816-2.784Zm-2.496-7.84-1.936 6.592h4.064l-1.936-6.592h-.192Zm12.085 10.048h.192V5.8h1.344V17h-2.688l-3.232-10.624h-.192V17h-1.344V5.8h2.688l3.232 10.624Zm7.669-.448c.458 0 .848-.075 1.168-.224.33-.16.597-.368.8-.624a2.57 2.57 0 0 0 .464-.896c.106-.341.16-.699.16-1.072v-.192h1.344v.192a4.95 4.95 0 0 1-.256 1.6c-.171.49-.422.923-.752 1.296-.331.363-.742.65-1.232.864-.491.203-1.056.304-1.696.304-1.238 0-2.203-.39-2.896-1.168-.694-.779-1.04-1.915-1.04-3.408v-2.496c0-1.45.346-2.576 1.04-3.376.693-.8 1.658-1.2 2.896-1.2.64 0 1.205.107 1.696.32.49.203.901.49 1.232.864.33.363.581.795.752 1.296.17.49.256 1.019.256 1.584v.192h-1.344V9.64a3.948 3.948 0 0 0-.176-1.056 2.397 2.397 0 0 0-.464-.896 2.063 2.063 0 0 0-.784-.624c-.32-.16-.71-.24-1.168-.24-.864 0-1.515.315-1.952.944-.427.63-.64 1.456-.64 2.48v2.304c0 1.099.213 1.947.64 2.544.437.587 1.088.88 1.952.88ZM129.067 5.8h6.784v1.248h-5.44v3.712h5.344v1.248h-5.344v3.744h5.536V17h-6.88V5.8Zm10.788 6.464h4.8v1.152h-4.8v-1.152Zm8.261-2.112c0-1.45.347-2.576 1.04-3.376.694-.8 1.659-1.2 2.896-1.2 1.238 0 2.203.4 2.896 1.2.694.8 1.04 1.925 1.04 3.376v2.496c0 1.493-.346 2.63-1.04 3.408-.693.779-1.658 1.168-2.896 1.168-1.237 0-2.202-.39-2.896-1.168-.693-.779-1.04-1.915-1.04-3.408v-2.496Zm3.936 5.824c.864 0 1.51-.293 1.936-.88.438-.597.656-1.445.656-2.544v-2.304c0-1.024-.218-1.85-.656-2.48-.426-.63-1.072-.944-1.936-.944-.864 0-1.514.315-1.952.944-.426.63-.64 1.456-.64 2.48v2.304c0 1.099.214 1.947.64 2.544.438.587 1.088.88 1.952.88Zm7.605-3.584V17h-1.344V5.8h4c.576 0 1.077.085 1.504.256.427.16.779.379 1.056.656.288.277.501.603.64.976.149.363.224.747.224 1.152v.48c0 .405-.075.795-.224 1.168a2.742 2.742 0 0 1-.64.992 3.277 3.277 0 0 1-1.072.672c-.427.16-.923.24-1.488.24h-2.656Zm0-1.248h2.496c1.493 0 2.24-.64 2.24-1.92v-.288c0-.565-.187-1.019-.56-1.36-.363-.352-.923-.528-1.68-.528h-2.496v4.096ZM167.71 5.8h7.872v1.248h-3.264V17h-1.344V7.048h-3.264V5.8Zm10.181 0h7.104v1.248h-2.88v8.704h2.88V17h-7.104v-1.248h2.88V7.048h-2.88V5.8Zm9.189 0h2.56l1.504 10.624h.192L192.84 5.8h2.56V17h-1.248V6.376h-.192L192.456 17h-2.432L188.52 6.376h-.192V17h-1.248V5.8Zm10.405 0h7.104v1.248h-2.88v8.704h2.88V17h-7.104v-1.248h2.88V7.048h-2.88V5.8Zm9.685 0h7.488v2.016l-6.72 7.744v.192h6.912V17h-8.064v-2.016l6.72-7.744v-.192h-6.336V5.8Zm10.068 0h6.784v1.248h-5.44v3.712h5.344v1.248h-5.344v3.744h5.536V17h-6.88V5.8Zm9.461 0h3.68c1.387 0 2.4.33 3.04.992.64.661.96 1.717.96 3.168v2.88c0 1.45-.32 2.507-.96 3.168-.64.661-1.653.992-3.04.992h-3.68v-1.264h.96V7.048h-.96V5.8Zm3.488 9.952c.491 0 .912-.048 1.264-.144.363-.096.662-.256.896-.48.235-.235.406-.544.512-.928.118-.384.176-.87.176-1.456v-2.688c0-.587-.058-1.072-.176-1.456-.106-.384-.277-.688-.512-.912a1.935 1.935 0 0 0-.896-.496 4.849 4.849 0 0 0-1.264-.144h-1.184v8.704h1.184Z"/></svg>