<svg xmlns="http://www.w3.org/2000/svg" width="216" height="23" fill="none"><rect width="216" height="23" fill="#032538" rx="5"/><path fill="#C4EC94" d="M11.552 14.92v-1.344l6.208-2.08v-.192l-6.208-2.08V7.88l6.688 2.304v2.432l-6.688 2.304Zm23.002 1.056c.458 0 .848-.075 1.168-.224.33-.16.597-.368.8-.624.213-.267.368-.565.464-.896.106-.341.16-.699.16-1.072v-.192h1.344v.192c0 .565-.086 1.099-.256 1.6-.17.49-.422.923-.752 1.296-.33.363-.742.65-1.232.864-.49.203-1.056.304-1.696.304-1.238 0-2.203-.39-2.896-1.168-.694-.779-1.04-1.915-1.04-3.408v-2.496c0-1.45.346-2.576 1.04-3.376.693-.8 1.658-1.2 2.896-1.2.64 0 1.205.107 1.696.32.49.203.901.49 1.232.864.33.363.581.795.752 1.296.17.49.256 1.019.256 1.584v.192h-1.344V9.64a3.913 3.913 0 0 0-.176-1.056 2.393 2.393 0 0 0-.464-.896 2.06 2.06 0 0 0-.784-.624c-.32-.16-.71-.24-1.168-.24-.864 0-1.515.315-1.952.944-.427.63-.64 1.456-.64 2.48v2.304c0 1.099.213 1.947.64 2.544.437.587 1.088.88 1.952.88Zm5.797-5.824c0-1.45.346-2.576 1.04-3.376.693-.8 1.658-1.2 2.896-1.2 1.237 0 2.202.4 2.896 1.2.693.8 1.04 1.925 1.04 3.376v2.496c0 1.493-.347 2.63-1.04 3.408-.694.779-1.659 1.168-2.896 1.168-1.238 0-2.203-.39-2.896-1.168-.694-.779-1.04-1.915-1.04-3.408v-2.496Zm3.936 5.824c.864 0 1.509-.293 1.936-.88.437-.597.656-1.445.656-2.544v-2.304c0-1.024-.219-1.85-.656-2.48-.427-.63-1.072-.944-1.936-.944-.864 0-1.515.315-1.952.944-.427.63-.64 1.456-.64 2.48v2.304c0 1.099.213 1.947.64 2.544.437.587 1.088.88 1.952.88Zm11.989.448h.191V5.8h1.345V17h-2.688L51.89 6.376H51.7V17h-1.345V5.8h2.689l3.232 10.624ZM59.416 5.8h1.44l2.928 10.624h.192L66.904 5.8h1.44L65.176 17h-2.592L59.416 5.8Zm10.87 0h6.783v1.248h-5.44v3.712h5.344v1.248H71.63v3.744h5.536V17h-6.88V5.8ZM86.977 17h-1.344v-3.744c0-.277-.064-.49-.192-.64-.128-.15-.352-.224-.672-.224h-3.488V17h-1.344V5.8h4c.576 0 1.078.085 1.504.256.427.16.779.379 1.056.656.288.277.501.603.64.976.15.363.224.747.224 1.152v.48c0 .416-.117.832-.352 1.248-.224.416-.576.736-1.056.96v.192c.32.053.57.181.752.384.181.203.272.49.272.864V17Zm-5.696-5.856h2.496c.757 0 1.317-.16 1.68-.48.374-.33.56-.81.56-1.44v-.288c0-.565-.186-1.019-.56-1.36-.362-.352-.922-.528-1.68-.528h-2.496v4.096Zm14.629-2.112c0-.363-.075-.683-.224-.96a1.899 1.899 0 0 0-.576-.688 2.735 2.735 0 0 0-.848-.416 3.49 3.49 0 0 0-1.008-.144c-.31 0-.603.043-.88.128a2.531 2.531 0 0 0-.752.336c-.213.15-.384.336-.512.56a1.434 1.434 0 0 0-.192.752v.096c0 .31.064.576.192.8.128.213.315.4.56.56.256.15.57.277.944.384.373.096.81.181 1.312.256 1.173.181 2.037.528 2.592 1.04.555.501.832 1.179.832 2.032v.192c0 .48-.085.923-.256 1.328-.16.395-.405.736-.736 1.024a3.35 3.35 0 0 1-1.2.672c-.48.16-1.035.24-1.664.24-.715 0-1.35-.101-1.904-.304a4.087 4.087 0 0 1-1.376-.864 3.857 3.857 0 0 1-.832-1.296 4.525 4.525 0 0 1-.288-1.632v-.48h1.344v.384c0 .981.267 1.717.8 2.208.544.49 1.296.736 2.256.736.832 0 1.456-.181 1.872-.544.427-.373.64-.864.64-1.472v-.096c0-.587-.219-1.035-.656-1.344-.427-.31-1.125-.533-2.096-.672a8.618 8.618 0 0 1-1.536-.336 4.202 4.202 0 0 1-1.152-.608 2.627 2.627 0 0 1-.736-.912c-.17-.352-.256-.768-.256-1.248v-.192c0-.437.09-.837.272-1.2.181-.363.432-.677.752-.944.33-.267.72-.47 1.168-.608.459-.15.96-.224 1.504-.224.63 0 1.19.09 1.68.272.501.181.923.427 1.264.736.341.299.597.656.768 1.072a3.1 3.1 0 0 1 .272 1.28v.672h-1.344v-.576ZM99.516 5.8h7.104v1.248h-2.88v8.704h2.88V17h-7.104v-1.248h2.88V7.048h-2.88V5.8Zm9.413 4.352c0-1.45.346-2.576 1.04-3.376.693-.8 1.658-1.2 2.896-1.2 1.237 0 2.202.4 2.896 1.2.693.8 1.04 1.925 1.04 3.376v2.496c0 1.493-.347 2.63-1.04 3.408-.694.779-1.659 1.168-2.896 1.168-1.238 0-2.203-.39-2.896-1.168-.694-.779-1.04-1.915-1.04-3.408v-2.496Zm3.936 5.824c.864 0 1.509-.293 1.936-.88.437-.597.656-1.445.656-2.544v-2.304c0-1.024-.219-1.85-.656-2.48-.427-.63-1.072-.944-1.936-.944-.864 0-1.515.315-1.952.944-.427.63-.64 1.456-.64 2.48v2.304c0 1.099.213 1.947.64 2.544.437.587 1.088.88 1.952.88Zm11.989.448h.192V5.8h1.344V17h-2.688L120.47 6.376h-.192V17h-1.344V5.8h2.688l3.232 10.624Zm5.205-4.16h4.8v1.152h-4.8v-1.152Zm8.468-6.464h3.68c1.387 0 2.4.33 3.04.992.64.661.96 1.717.96 3.168v2.88c0 1.45-.32 2.507-.96 3.168-.64.661-1.653.992-3.04.992h-3.68v-1.264h.96V7.048h-.96V5.8Zm3.488 9.952c.491 0 .912-.048 1.264-.144.363-.096.662-.256.896-.48.235-.235.406-.544.512-.928.118-.384.176-.87.176-1.456v-2.688c0-.587-.058-1.072-.176-1.456-.106-.384-.277-.688-.512-.912a1.935 1.935 0 0 0-.896-.496 4.849 4.849 0 0 0-1.264-.144h-1.184v8.704h1.184ZM155.556 17h-1.344v-3.744c0-.277-.064-.49-.192-.64-.128-.15-.352-.224-.672-.224h-3.488V17h-1.344V5.8h4c.576 0 1.078.085 1.504.256.427.16.779.379 1.056.656.288.277.502.603.64.976.15.363.224.747.224 1.152v.48c0 .416-.117.832-.352 1.248-.224.416-.576.736-1.056.96v.192c.32.053.571.181.752.384.182.203.272.49.272.864V17Zm-5.696-5.856h2.496c.758 0 1.318-.16 1.68-.48.374-.33.56-.81.56-1.44v-.288c0-.565-.186-1.019-.56-1.36-.362-.352-.922-.528-1.68-.528h-2.496v4.096Zm8.437-5.344h7.104v1.248h-2.88v8.704h2.88V17h-7.104v-1.248h2.88V7.048h-2.88V5.8Zm8.885 0h1.44l2.928 10.624h.192L174.67 5.8h1.44L172.942 17h-2.592l-3.168-11.2Zm10.709 0h7.104v1.248h-2.88v8.704h2.88V17h-7.104v-1.248h2.88V7.048h-2.88V5.8Zm15.541 10.624h.192V5.8h1.344V17h-2.688l-3.232-10.624h-.192V17h-1.344V5.8h2.688l3.232 10.624Zm6.533-4.8h4.992V17h-1.248v-1.344h-.192a2.31 2.31 0 0 1-.96 1.136c-.459.288-.992.432-1.6.432-1.206 0-2.155-.39-2.848-1.168-.683-.779-1.024-1.915-1.024-3.408v-2.496c0-1.45.346-2.576 1.04-3.376.693-.8 1.658-1.2 2.896-1.2.64 0 1.205.107 1.696.32.49.203.901.49 1.232.864.33.363.581.795.752 1.296.17.49.256 1.019.256 1.584v.192h-1.344V9.64c0-.363-.054-.715-.16-1.056a2.397 2.397 0 0 0-.464-.896 2.042 2.042 0 0 0-.8-.624c-.32-.16-.71-.24-1.168-.24-.864 0-1.515.315-1.952.944-.427.63-.64 1.456-.64 2.48v2.304c0 1.099.213 1.947.64 2.544.437.587 1.098.88 1.984.88.8 0 1.424-.256 1.872-.768.458-.512.688-1.227.688-2.144v-.192h-3.648v-1.248Z"/></svg>