<svg xmlns="http://www.w3.org/2000/svg" width="197" height="23" fill="none"><rect width="197" height="23" fill="#032538" rx="5"/><path fill="#DCCCF0" d="M11.552 14.92v-1.344l6.208-2.08v-.192l-6.208-2.08V7.88l6.688 2.304v2.432l-6.688 2.304ZM30.938 5.8h7.104v1.248h-2.88v8.704h2.88V17h-7.104v-1.248h2.88V7.048h-2.88V5.8Zm15.54 10.624h.193V5.8h1.344V17h-2.688L42.095 6.376h-.192V17h-1.344V5.8h2.688l3.232 10.624Zm7.67-.448c.458 0 .847-.075 1.167-.224.331-.16.598-.368.8-.624.214-.267.368-.565.465-.896.106-.341.16-.699.16-1.072v-.192h1.343v.192a4.93 4.93 0 0 1-.255 1.6 3.83 3.83 0 0 1-.753 1.296c-.33.363-.74.65-1.232.864-.49.203-1.056.304-1.696.304-1.237 0-2.202-.39-2.895-1.168-.694-.779-1.04-1.915-1.04-3.408v-2.496c0-1.45.346-2.576 1.04-3.376.693-.8 1.658-1.2 2.895-1.2.64 0 1.206.107 1.697.32.49.203.9.49 1.231.864.331.363.582.795.752 1.296.171.49.257 1.019.257 1.584v.192h-1.345V9.64a3.909 3.909 0 0 0-.175-1.056 2.393 2.393 0 0 0-.465-.896 2.06 2.06 0 0 0-.783-.624c-.32-.16-.71-.24-1.169-.24-.864 0-1.514.315-1.951.944-.427.63-.64 1.456-.64 2.48v2.304c0 1.099.213 1.947.64 2.544.437.587 1.087.88 1.952.88ZM60.376 5.8h1.344v9.952h5.856V17h-7.2V5.8Zm10.805 0v7.424c0 .907.208 1.595.624 2.064.427.459 1.05.688 1.872.688.822 0 1.44-.23 1.856-.688.427-.47.64-1.157.64-2.064V5.8h1.344v7.424c0 1.301-.341 2.293-1.024 2.976-.682.683-1.621 1.024-2.816 1.024-1.194 0-2.133-.341-2.816-1.024-.682-.683-1.024-1.675-1.024-2.976V5.8h1.344Zm14.933 3.232c0-.363-.075-.683-.224-.96a1.897 1.897 0 0 0-.576-.688 2.735 2.735 0 0 0-.848-.416 3.49 3.49 0 0 0-1.008-.144c-.31 0-.602.043-.88.128a2.531 2.531 0 0 0-.752.336c-.213.15-.384.336-.512.56a1.434 1.434 0 0 0-.192.752v.096c0 .31.064.576.192.8.128.213.315.4.56.56.256.15.57.277.944.384.374.096.81.181 1.312.256 1.174.181 2.038.528 2.592 1.04.555.501.832 1.179.832 2.032v.192c0 .48-.085.923-.256 1.328-.16.395-.405.736-.736 1.024a3.35 3.35 0 0 1-1.2.672c-.48.16-1.034.24-1.664.24-.714 0-1.35-.101-1.904-.304a4.088 4.088 0 0 1-1.376-.864 3.858 3.858 0 0 1-.832-1.296 4.525 4.525 0 0 1-.288-1.632v-.48h1.344v.384c0 .981.267 1.717.8 2.208.544.49 1.296.736 2.256.736.832 0 1.456-.181 1.872-.544.427-.373.64-.864.64-1.472v-.096c0-.587-.218-1.035-.656-1.344-.427-.31-1.125-.533-2.096-.672a8.618 8.618 0 0 1-1.536-.336 4.202 4.202 0 0 1-1.152-.608 2.627 2.627 0 0 1-.736-.912c-.17-.352-.256-.768-.256-1.248v-.192c0-.437.09-.837.272-1.2.181-.363.432-.677.752-.944.33-.267.72-.47 1.168-.608.459-.15.96-.224 1.504-.224.63 0 1.19.09 1.68.272a3.76 3.76 0 0 1 1.264.736c.341.299.597.656.768 1.072.181.405.272.832.272 1.28v.672h-1.344v-.576ZM89.72 5.8h7.104v1.248h-2.88v8.704h2.88V17h-7.104v-1.248h2.88V7.048h-2.88V5.8Zm8.885 0h1.44l2.928 10.624h.192L106.092 5.8h1.44L104.364 17h-2.592L98.604 5.8Zm10.869 0h6.784v1.248h-5.44v3.712h5.344v1.248h-5.344v3.744h5.536V17h-6.88V5.8Zm19.258 0h3.68c1.386 0 2.4.33 3.04.992.64.661.96 1.717.96 3.168v2.88c0 1.45-.32 2.507-.96 3.168-.64.661-1.654.992-3.04.992h-3.68v-1.264h.96V7.048h-.96V5.8Zm3.488 9.952c.49 0 .912-.048 1.264-.144.362-.096.661-.256.896-.48.234-.235.405-.544.512-.928.117-.384.176-.87.176-1.456v-2.688c0-.587-.059-1.072-.176-1.456-.107-.384-.278-.688-.512-.912a1.945 1.945 0 0 0-.896-.496 4.854 4.854 0 0 0-1.264-.144h-1.184v8.704h1.184Zm6.644-9.952h6.784v1.248h-5.44v3.712h5.344v1.248h-5.344v3.744h5.536V17h-6.88V5.8Zm15.829 3.232c0-.363-.074-.683-.224-.96a1.885 1.885 0 0 0-.576-.688 2.731 2.731 0 0 0-.848-.416 3.49 3.49 0 0 0-1.008-.144 2.98 2.98 0 0 0-.88.128 2.535 2.535 0 0 0-.752.336c-.213.15-.384.336-.512.56a1.434 1.434 0 0 0-.192.752v.096c0 .31.064.576.192.8.128.213.315.4.56.56.256.15.571.277.944.384.374.096.811.181 1.312.256 1.174.181 2.038.528 2.592 1.04.555.501.832 1.179.832 2.032v.192c0 .48-.085.923-.256 1.328-.16.395-.405.736-.736 1.024a3.35 3.35 0 0 1-1.2.672c-.48.16-1.034.24-1.664.24-.714 0-1.349-.101-1.904-.304a4.094 4.094 0 0 1-1.376-.864 3.868 3.868 0 0 1-.832-1.296 4.525 4.525 0 0 1-.288-1.632v-.48h1.344v.384c0 .981.267 1.717.8 2.208.544.49 1.296.736 2.256.736.832 0 1.456-.181 1.872-.544.427-.373.64-.864.64-1.472v-.096c0-.587-.218-1.035-.656-1.344-.426-.31-1.125-.533-2.096-.672a8.63 8.63 0 0 1-1.536-.336 4.202 4.202 0 0 1-1.152-.608 2.63 2.63 0 0 1-.736-.912c-.17-.352-.256-.768-.256-1.248v-.192c0-.437.091-.837.272-1.2.182-.363.432-.677.752-.944.331-.267.72-.47 1.168-.608.459-.15.96-.224 1.504-.224.63 0 1.19.09 1.68.272.502.181.923.427 1.264.736.342.299.598.656.768 1.072.182.405.272.832.272 1.28v.672h-1.344v-.576Zm3.605-3.232h7.104v1.248h-2.88v8.704h2.88V17h-7.104v-1.248h2.88V7.048h-2.88V5.8Zm12.277 5.824h4.992V17h-1.248v-1.344h-.192a2.3 2.3 0 0 1-.96 1.136c-.459.288-.992.432-1.6.432-1.205 0-2.155-.39-2.848-1.168-.683-.779-1.024-1.915-1.024-3.408v-2.496c0-1.45.347-2.576 1.04-3.376.693-.8 1.659-1.2 2.896-1.2.64 0 1.205.107 1.696.32.491.203.901.49 1.232.864.331.363.581.795.752 1.296a4.78 4.78 0 0 1 .256 1.584v.192h-1.344V9.64a3.51 3.51 0 0 0-.16-1.056 2.397 2.397 0 0 0-.464-.896 2.035 2.035 0 0 0-.8-.624c-.32-.16-.709-.24-1.168-.24-.864 0-1.515.315-1.952.944-.427.63-.64 1.456-.64 2.48v2.304c0 1.099.213 1.947.64 2.544.437.587 1.099.88 1.984.88.8 0 1.424-.256 1.872-.768.459-.512.688-1.227.688-2.144v-.192h-3.648v-1.248Zm13.061 4.8h.192V5.8h1.344V17h-2.688l-3.232-10.624h-.192V17h-1.344V5.8h2.688l3.232 10.624Z"/></svg>